# Blender v2.77 (sub 0) OBJ File: 'Kelloviisari.blend'
# www.blender.org
mtllib Kelloviisari.mtl
o Cube
v 0.243956 1.257753 -0.556746
v 0.243956 1.257753 0.513687
v -0.180074 1.257753 0.513687
v -0.180073 1.257753 -0.556746
v 0.195792 7.718496 -0.435159
v 0.195791 7.718496 0.392101
v -0.131910 7.718496 0.392100
v -0.131910 7.718496 -0.435160
v 0.243956 1.257753 -0.021529
v -0.180073 1.257753 -0.021530
v 0.164249 8.051772 -0.021529
v -0.137714 8.051772 -0.021530
v 0.243956 7.341442 -0.556745
v 0.243955 7.341442 0.513687
v -0.180074 7.341442 0.513686
v -0.180074 7.341442 -0.556746
v -0.180074 7.341442 -0.021530
v 0.243955 7.341442 -0.021529
vt 0.8758 0.0788
vt 0.8758 0.0000
vt 1.0000 0.0000
vt 1.0000 0.0788
vt 0.8524 1.0000
vt 0.7639 1.0000
vt 0.7656 0.9421
vt 0.8616 0.9421
vt 0.4705 0.8938
vt 0.4705 0.9989
vt 0.3493 0.9496
vt 0.3136 0.8938
vt 0.8758 0.8845
vt 0.7515 0.8845
vt 0.1568 0.1047
vt 0.1568 0.0000
vt 0.2780 0.0490
vt 0.3136 0.1047
vt 0.6273 0.8845
vt 0.6273 0.0000
vt 0.7515 0.0000
vt 0.7515 0.8845
vt 0.0000 0.1047
vt 0.0356 0.0490
vt 0.6273 0.8938
vt 0.5917 0.9496
vt 0.6414 0.9421
vt 0.7374 0.9421
vt 0.7391 1.0000
vt 0.6506 1.0000
vt 0.8758 0.1575
vt 1.0000 0.1575
vt 0.4705 0.0000
vt 0.0000 0.9992
vt 0.1568 0.9992
vt 0.3136 0.9992
vt 0.7515 0.0000
vt 0.3136 0.0000
vn 0.0000 -1.0000 -0.0000
vn -0.0000 0.7787 0.6274
vn 0.9930 0.1177 0.0083
vn -0.0000 0.3069 0.9517
vn -0.9955 0.0870 -0.0366
vn 0.0000 0.0000 -1.0000
vn -0.9955 0.0870 0.0366
vn 0.9930 0.1177 -0.0083
vn 0.0000 0.7787 -0.6274
vn 1.0000 -0.0000 0.0000
vn -1.0000 -0.0000 -0.0000
vn 0.0000 0.3069 -0.9517
vn -0.0000 -0.0000 1.0000
usemtl Material
s off
f 9/1/1 2/2/1 3/3/1 10/4/1
f 11/5/2 12/6/2 7/7/2 6/8/2
f 18/9/3 11/10/3 6/11/3 14/12/3
f 14/13/4 6/8/4 7/7/4 15/14/4
f 17/15/5 12/16/5 8/17/5 16/18/5
f 13/19/6 1/20/6 4/21/6 16/22/6
f 15/23/7 7/24/7 12/16/7 17/15/7
f 13/25/8 5/26/8 11/10/8 18/9/8
f 5/27/9 8/28/9 12/29/9 11/30/9
f 1/31/1 9/1/1 10/4/1 4/32/1
f 1/20/10 13/25/10 18/9/10 9/33/10
f 3/34/11 15/23/11 17/15/11 10/35/11
f 5/27/12 13/19/12 16/22/12 8/28/12
f 10/35/11 17/15/11 16/18/11 4/36/11
f 2/2/13 14/13/13 15/14/13 3/37/13
f 9/33/10 18/9/10 14/12/10 2/38/10
