# Blender v2.77 (sub 0) OBJ File: 'Veitsi.blend'
# www.blender.org
mtllib Veitsi.mtl
o Cube
v 0.025091 2.763417 -0.532706
v -0.047312 1.067464 1.000000
v -0.653341 1.067464 1.000000
v -0.706344 2.763417 -0.554668
v -0.106411 9.212699 -0.468097
v -0.106412 9.194118 0.732947
v -0.656956 9.194118 0.732946
v -0.656956 9.212699 -0.468097
v 0.025091 1.731903 0.195280
v -0.706345 1.731903 0.146319
v -0.106411 9.194118 -0.000685
v -0.656956 9.194118 -0.000685
v 0.025091 4.524503 -0.801163
v 0.093280 3.805795 1.000000
v -0.810149 3.805795 1.000000
v -0.725213 4.524503 -0.767318
v -0.810149 3.980428 -0.000685
v 0.093280 3.980428 -0.000685
v 0.025091 7.149111 -0.994777
v 0.093280 6.817482 1.000000
v -0.810149 6.817482 1.000000
v -0.725213 7.149111 -0.960932
v -0.810149 6.894507 -0.000685
v 0.093280 6.894507 -0.000685
v 0.082215 9.194118 -0.000684
v 0.082215 9.194118 1.000001
v 0.014027 9.220287 -1.014467
v -0.760534 9.220287 -0.980622
v -0.845470 9.194118 1.000000
v -0.845470 9.194118 -0.000685
v -0.656956 15.514647 -0.055645
v -0.106411 15.514647 -0.055645
v -0.106412 15.129408 0.536597
v -0.106411 15.102763 -0.599896
v -0.656956 15.102763 -0.599896
v -0.656956 15.129408 0.536597
v -0.665879 14.146568 0.712850
v -0.665879 14.146568 -0.044562
v -0.665879 14.165752 -0.724439
v -0.097488 14.165752 -0.724439
v -0.097488 14.146568 -0.044562
v -0.097489 14.146568 0.712851
v -0.667082 10.706618 0.049166
v -0.667082 10.725883 -0.435440
v -0.096284 10.725883 -0.435440
v -0.096285 10.706618 0.049167
v -0.667082 10.706618 0.809786
v -0.096285 10.706618 0.809786
v -0.667083 13.044324 0.808255
v -0.096285 13.044324 0.808256
v -0.667082 12.843493 0.047636
v -0.667082 12.793461 -0.545509
v -0.096285 12.793461 -0.545509
v -0.096285 12.843493 0.047636
v -0.358434 2.554395 -1.044858
v -0.358434 0.552546 0.919692
v -0.381627 9.220287 -1.471609
v -0.381628 9.194118 1.000000
v -0.358434 1.211854 -0.074341
v -0.358434 4.524503 -1.365060
v -0.358434 3.805795 1.000000
v -0.358434 7.149111 -1.558674
v -0.358435 6.817482 1.000000
v -0.381683 9.212699 -0.468097
v -0.381684 9.194118 0.732947
v -0.381684 15.514647 -0.055645
v -0.381683 15.102763 -0.599896
v -0.381684 15.129408 0.536597
v -0.381684 14.146568 0.712851
v -0.381683 14.165752 -0.724439
v -0.381683 10.725883 -0.435440
v -0.381684 10.706618 0.809786
v -0.381683 12.793461 -0.545509
v -0.381684 13.044324 0.808255
vt 0.1455 0.0752
vt 0.2428 0.0000
vt 0.2534 0.0598
vt 0.1704 0.1357
vt 0.7955 0.1486
vt 0.7292 0.1550
vt 0.7235 0.0000
vt 0.7787 0.0433
vt 0.4085 0.2640
vt 0.4084 0.0029
vt 0.5068 0.0030
vt 0.5068 0.2728
vt 0.7955 0.2701
vt 0.7962 0.0003
vt 0.8418 0.0000
vt 0.8399 0.2698
vt 0.1567 0.7219
vt 0.1569 0.9830
vt 0.0603 0.9859
vt 0.0620 0.7508
vt 0.0191 0.4515
vt 0.0505 0.2279
vt 0.1018 0.2530
vt 0.0811 0.4530
vt 0.2546 0.7128
vt 0.2548 0.9826
vt 0.3107 0.2352
vt 0.3087 0.0000
vt 0.6552 0.1598
vt 0.6676 0.0474
vt 0.3561 0.7331
vt 0.3297 0.5332
vt 0.4085 0.5949
vt 0.4276 0.8502
vt 0.2548 0.3711
vt 0.1569 0.3913
vt 0.0000 0.7493
vt 0.7995 0.9809
vt 0.7974 0.6119
vt 0.8418 0.6116
vt 0.8281 0.9225
vt 0.5068 0.6147
vt 0.5066 0.9257
vt 0.0086 0.9844
vt 0.6700 0.8872
vt 0.6700 0.9699
vt 0.6515 1.0000
vt 0.6515 0.8872
vt 0.6970 0.8343
vt 0.6700 0.8343
vt 0.6582 0.7726
vt 0.6970 0.7210
vt 0.7426 0.7511
vt 0.7156 0.7511
vt 0.6970 0.7210
vt 0.7426 0.7210
vt 0.7156 0.8338
vt 0.7156 0.8868
vt 0.7054 0.9447
vt 0.6970 0.8338
vt 0.5338 0.7933
vt 0.5068 0.7933
vt 0.5068 0.7213
vt 0.5338 0.7213
vt 0.5879 0.7213
vt 0.6150 0.7213
vt 0.6150 0.7771
vt 0.5879 0.7771
vt 1.0000 0.1063
vt 0.9721 0.1063
vt 0.9730 0.0000
vt 1.0000 0.0000
vt 0.5849 0.5661
vt 0.6515 0.5723
vt 0.6345 0.6778
vt 0.5790 0.7213
vt 0.9159 0.5621
vt 0.9438 0.5621
vt 0.9429 0.6743
vt 0.9159 0.6743
vt 0.5105 0.5617
vt 0.5229 0.6742
vt 0.5068 0.4361
vt 0.5824 0.4178
vt 0.9159 0.4367
vt 0.9439 0.4367
vt 0.6409 0.4156
vt 1.0000 0.2622
vt 0.9720 0.2622
vt 0.7267 0.3032
vt 0.6515 0.2852
vt 0.7849 0.3052
vt 0.7955 0.7114
vt 0.7499 0.7164
vt 0.7373 0.5454
vt 0.7846 0.5401
vt 0.6783 0.7210
vt 0.6631 0.5501
vt 1.0000 0.6689
vt 0.9730 0.6689
vt 0.9720 0.4971
vt 1.0000 0.4971
vt 0.6057 0.0043
vt 0.6515 0.0092
vt 0.6406 0.1806
vt 0.5931 0.1755
vt 0.9159 0.0000
vt 0.9429 0.0000
vt 0.9439 0.1714
vt 0.9159 0.1714
vt 0.5337 0.0000
vt 0.5185 0.1711
vt 0.8878 0.1714
vt 0.8878 0.4367
vt 0.9439 0.1718
vt 0.9720 0.1718
vt 0.9720 0.4066
vt 0.9439 0.4066
vt 0.8888 0.0000
vt 0.9449 0.0000
vt 0.9720 0.0000
vt 0.9720 0.5626
vt 0.9440 0.5626
vt 0.8879 0.5621
vt 0.8888 0.6743
vt 0.9720 0.6689
vt 0.9449 0.6689
vt 0.5879 0.7771
vt 0.5609 0.7771
vt 0.5609 0.7213
vt 0.5879 0.7213
vt 0.5609 0.7933
vt 0.5609 0.7213
vt 0.6970 0.9699
vt 0.6970 1.0000
vt 0.7426 0.8868
vt 0.7426 1.0000
vt 0.8426 0.6117
vt 0.8418 0.2699
vt 0.8862 0.2697
vt 0.8870 0.6116
vt 0.2548 0.2353
vt 0.2633 0.0002
vt 0.8571 0.9224
vt 0.8878 0.9805
vt 0.2738 0.5333
vt 0.4006 0.9095
vt 0.3053 0.7570
vt 0.8423 0.0001
vt 0.8878 0.0000
vt 0.4983 0.9843
vn -0.8482 -0.4418 -0.2922
vn -1.0000 0.0079 -0.0025
vn 1.0000 0.0047 0.0002
vn -0.0000 -0.0000 1.0000
vn -0.9958 -0.0165 -0.0896
vn -0.8401 -0.0808 -0.5364
vn -0.9999 -0.0151 -0.0006
vn 0.9977 0.0047 -0.0671
vn -1.0000 0.0078 0.0022
vn -0.8211 -0.3286 -0.4667
vn 0.9972 -0.0251 -0.0704
vn -0.9986 -0.0520 0.0050
vn -0.8517 -0.0386 -0.5226
vn -0.9942 -0.0394 -0.0998
vn 0.0996 -0.0107 0.9950
vn 0.9989 -0.0410 0.0210
vn -0.8250 -0.0025 -0.5651
vn 0.9970 -0.0027 -0.0770
vn -1.0000 -0.0000 -0.0000
vn -0.9950 -0.0035 -0.0995
vn 1.0000 0.0000 0.0000
vn 0.0000 1.0000 -0.0000
vn -0.0063 0.9999 0.0093
vn -0.0256 0.9992 0.0294
vn 0.0267 0.9992 0.0290
vn -0.0000 0.8383 0.5453
vn 0.0000 0.7974 -0.6035
vn 0.0000 0.1318 -0.9913
vn 1.0000 0.0079 -0.0025
vn -0.0000 0.1765 0.9843
vn 1.0000 0.0078 0.0022
vn 1.0000 0.0010 -0.0001
vn -0.0000 0.0862 0.9963
vn 1.0000 0.0009 -0.0000
vn 0.0000 -0.1293 -0.9916
vn -1.0000 0.0010 -0.0001
vn -1.0000 0.0009 -0.0000
vn -1.0000 -0.0067 -0.0003
vn -1.0000 -0.0067 -0.0000
vn 0.0000 0.0216 -0.9998
vn 1.0000 -0.0067 -0.0003
vn -0.0000 -0.0507 0.9987
vn 1.0000 -0.0067 0.0000
vn 0.0000 -0.0532 -0.9986
vn -0.0000 0.0007 1.0000
vn 0.0071 0.9999 0.0095
vn 0.7949 0.0164 -0.6066
vn -0.0973 -0.0111 0.9952
vn 0.8262 -0.0415 -0.5619
vn 0.8101 -0.3411 -0.4768
vn 0.8192 -0.0894 -0.5666
vn 0.8355 -0.4581 -0.3035
usemtl Material
s off
f 59/1/1 56/2/1 3/3/1 10/4/1
f 39/5/2 38/6/2 31/7/2 35/8/2
f 24/9/3 25/10/3 26/11/3 20/12/3
f 63/13/4 58/14/4 29/15/4 21/16/4
f 23/17/5 30/18/5 28/19/5 22/20/5
f 60/21/6 55/22/6 4/23/6 16/24/6
f 21/25/7 29/26/7 30/18/7 23/17/7
f 19/27/8 27/28/8 25/10/8 24/9/8
f 38/6/9 37/29/9 36/30/9 31/7/9
f 55/22/10 59/1/10 10/4/10 4/23/10
f 1/31/11 13/32/11 18/33/11 9/34/11
f 3/3/12 15/35/12 17/36/12 10/4/12
f 62/37/13 60/21/13 16/24/13 22/20/13
f 10/4/14 17/36/14 16/24/14 4/23/14
f 56/38/15 61/39/15 15/40/15 3/41/15
f 9/34/16 18/33/16 14/42/16 2/43/16
f 57/44/17 62/37/17 22/20/17 28/19/17
f 13/32/18 19/27/18 24/9/18 18/33/18
f 15/35/19 21/25/19 23/17/19 17/36/19
f 17/36/20 23/17/20 22/20/20 16/24/20
f 61/39/4 63/13/4 21/16/4 15/40/4
f 18/33/21 24/9/21 20/12/21 14/42/21
f 11/45/22 6/46/22 26/47/22 25/48/22
f 64/49/23 5/50/23 27/51/23 57/52/23
f 65/53/22 7/54/22 29/55/22 58/56/22
f 12/57/24 8/58/24 28/59/24 30/60/24
f 5/50/25 11/45/25 25/48/25 27/51/25
f 7/54/22 12/57/22 30/60/22 29/55/22
f 66/61/26 31/62/26 36/63/26 68/64/26
f 67/65/27 35/66/27 31/67/27 66/68/27
f 70/69/28 39/70/28 35/71/28 67/72/28
f 41/73/29 40/74/29 34/75/29 32/76/29
f 69/77/30 42/78/30 33/79/30 68/80/30
f 42/81/31 41/73/31 32/76/31 33/82/31
f 50/83/32 54/84/32 41/73/32 42/81/32
f 74/85/33 50/86/33 42/78/33 69/77/33
f 54/84/34 53/87/34 40/74/34 41/73/34
f 73/88/35 52/89/35 39/70/35 70/69/35
f 51/90/36 49/91/36 37/29/36 38/6/36
f 52/92/37 51/90/37 38/6/37 39/5/37
f 8/93/38 12/94/38 43/95/38 44/96/38
f 12/94/39 7/97/39 47/98/39 43/95/39
f 64/99/40 8/100/40 44/101/40 71/102/40
f 11/103/41 5/104/41 45/105/41 46/106/41
f 65/107/42 6/108/42 48/109/42 72/110/42
f 6/111/43 11/103/43 46/106/43 48/112/43
f 44/96/19 43/95/19 51/90/19 52/92/19
f 43/95/19 47/98/19 49/91/19 51/90/19
f 71/102/44 44/101/44 52/89/44 73/88/44
f 46/106/21 45/105/21 53/87/21 54/84/21
f 72/110/45 48/109/45 50/86/45 74/85/45
f 48/112/21 46/106/21 54/84/21 50/83/21
f 47/113/45 72/110/45 74/85/45 49/114/45
f 45/115/44 71/116/44 73/117/44 53/118/44
f 7/119/42 65/107/42 72/110/42 47/113/42
f 5/120/40 64/121/40 71/116/40 45/115/40
f 53/118/35 73/117/35 70/122/35 40/123/35
f 49/114/33 74/85/33 69/77/33 37/124/33
f 37/124/30 69/77/30 68/80/30 36/125/30
f 40/123/28 70/122/28 67/126/28 34/127/28
f 34/128/27 67/129/27 66/130/27 32/131/27
f 32/132/26 66/61/26 68/64/26 33/133/26
f 6/46/22 65/134/22 58/135/22 26/47/22
f 8/58/46 64/136/46 57/137/46 28/59/46
f 14/138/4 20/139/4 63/140/4 61/141/4
f 27/28/47 19/27/47 62/142/47 57/143/47
f 2/144/48 14/138/48 61/141/48 56/145/48
f 19/27/49 13/32/49 60/146/49 62/142/49
f 1/31/50 9/34/50 59/147/50 55/148/50
f 13/32/51 1/31/51 55/148/51 60/146/51
f 20/139/4 26/149/4 58/150/4 63/140/4
f 9/34/52 2/43/52 56/151/52 59/147/52
