# Blender v2.77 (sub 0) OBJ File: 'House.blend'
# www.blender.org
mtllib House.mtl
o Cube
v 8.425931 2.367623 -7.682379
v 8.425930 2.367623 9.890816
v -9.778947 2.367623 9.890814
v -9.778947 2.367623 -7.682379
v 8.965941 2.367623 -7.682379
v 8.965940 2.367623 9.890816
v -10.175790 2.367623 9.890814
v -10.175790 2.367623 -7.682379
v 8.425931 2.367623 -7.234525
v -9.778947 2.367623 -7.234526
v 8.965941 2.367623 -7.234525
v -10.175790 2.367623 -7.234526
v 8.425931 2.367623 -4.281101
v -9.778947 2.367623 -4.281102
v 8.965941 2.367623 -4.281101
v -10.175790 2.367623 -4.281102
v 8.425931 2.367623 -3.904013
v -9.778947 2.367623 -3.904014
v 8.965941 2.367623 -3.904013
v -10.175790 2.367623 -3.904014
v 5.301609 2.367623 9.890816
v 5.301609 2.367623 -7.682379
v 5.301609 2.367623 -7.234525
v 5.301609 2.367623 -4.281101
v 5.301609 2.367623 -3.904013
v 4.947935 2.367623 9.890816
v 4.947935 2.367623 -7.682379
v 4.947935 2.367623 -7.234525
v 4.947935 2.367623 -4.281101
v 4.947935 2.367623 -3.904013
v -6.166361 2.367623 9.890814
v -6.166361 2.367623 -7.682379
v -6.166361 2.367623 -7.234526
v -6.166361 2.367623 -4.281102
v -6.166361 2.367623 -3.904014
v -3.437360 2.367623 -7.234526
v -3.437360 2.367623 -4.281102
v -3.437360 2.367623 -3.904014
v -3.437360 2.367623 9.890815
v -3.437360 2.367623 -7.682379
v 8.425930 2.367623 1.901552
v -9.778947 2.367623 1.901551
v 8.965940 2.367623 1.901552
v -10.175790 2.367623 1.901551
v 5.301609 2.367623 1.901552
v 4.947935 2.367623 1.901552
v -6.166361 2.367623 1.901551
v -3.437360 2.367623 1.901551
v -10.175790 2.367623 -0.700787
v 8.425930 2.367623 -0.700787
v -9.778947 2.367623 -0.700788
v 8.965940 2.367623 -0.700787
v 5.301609 2.367623 -0.700787
v 4.947935 2.367623 -0.700787
v -6.166361 2.367623 -0.700788
v -3.437360 2.367623 -0.700788
v -9.778947 10.068427 -7.682379
v -9.778947 10.068427 -7.234526
v 8.425931 10.068427 -7.682379
v 8.425931 10.068427 -7.234525
v 8.425930 10.068427 1.901552
v 8.425930 10.068427 9.890816
v 8.965941 10.068427 -7.682379
v 8.965940 10.068427 9.890816
v -9.778947 10.068427 1.901551
v -9.778947 10.068427 9.890814
v -6.166361 10.068427 -7.682379
v 8.965940 10.068427 1.901552
v -10.175790 10.068427 -7.682379
v -10.175790 10.068427 9.890814
v -10.175790 10.068427 -7.234526
v 8.965941 10.068427 -7.234525
v -10.175790 10.068427 -4.281102
v 5.301609 10.068427 -7.234525
v 8.425931 10.068427 -4.281101
v -9.778947 10.068427 -4.281102
v 8.965941 10.068427 -4.281101
v -10.175790 10.068427 -3.904014
v 8.425931 10.068427 -3.904013
v -9.778947 10.068427 -3.904014
v 8.965941 10.068427 -3.904013
v -10.175790 10.068427 -0.700787
v 5.301609 10.068427 -7.682379
v 4.947935 10.068427 -7.234525
v 4.947935 10.068427 -4.281101
v 5.301609 10.068427 -4.281101
v 4.947935 10.068427 -3.904013
v 5.301609 10.068427 -3.904013
v 5.301609 10.068427 1.901552
v 5.301609 10.068427 9.890816
v 4.947935 10.068427 9.890816
v 4.947935 10.068427 -7.682379
v -3.437360 10.068427 -7.234526
v -3.437360 10.068427 -4.281102
v -3.437360 10.068427 -3.904014
v 4.947935 10.068427 1.901552
v -3.437360 10.068427 -7.682379
v -6.166361 10.068427 -7.234526
v -6.166361 10.068427 -4.281102
v -6.166361 10.068427 -3.904014
v 8.425930 10.068427 -0.700787
v -9.778947 10.068427 -0.700788
v 8.965940 10.068427 -0.700787
v -10.175790 10.068427 1.901551
v 5.301609 10.068427 -0.700787
v 4.947935 10.068427 -0.700787
v -9.778947 9.721260 1.901551
v 4.947935 9.721260 -0.700787
v 4.947935 9.721260 1.901552
v -9.778947 9.721260 -4.281102
v -9.778947 9.721260 -7.234526
v 8.965940 9.721260 -0.700787
v 8.965941 9.721260 -3.904013
v -6.166361 9.721260 -7.234526
v -3.437360 9.721260 -7.234526
v 8.425930 9.721260 9.890816
v 8.965940 9.721260 9.890816
v 5.301609 9.721260 1.901552
v 5.301609 9.721260 -0.700787
v -3.437360 9.721260 -3.904014
v 4.947935 9.721260 -3.904013
v 8.425931 9.721260 -7.234525
v 8.425931 9.721260 -4.281101
v -9.778947 9.721260 -0.700788
v -9.778947 9.721260 -3.904014
v 8.965941 9.721260 -7.682379
v 8.425931 9.721260 -7.682379
v -10.175790 9.721260 1.901551
v -10.175790 9.721260 9.890814
v -9.778947 9.721260 9.890814
v 5.301609 9.721260 -7.682379
v -6.166361 9.721260 -4.281102
v -3.437360 9.721260 -4.281102
v 5.301609 9.721260 -3.904013
v 8.965941 9.721260 -7.234525
v 8.965941 9.721260 -4.281101
v 5.301609 9.721260 -7.234525
v 4.947935 9.721260 -7.234525
v -6.166361 9.721260 -3.904014
v -10.175790 9.721260 -3.904014
v -10.175790 9.721260 -4.281102
v -9.778947 9.721260 -7.682379
v -6.166361 9.721260 -7.682379
v 4.947935 9.721260 -4.281101
v 5.301609 9.721260 -4.281101
v 4.947935 9.721260 9.890816
v 8.965940 9.721260 1.901552
v -3.437360 9.721260 -7.682379
v 4.947935 9.721260 -7.682379
v -10.175790 9.721260 -7.682379
v 8.425931 9.721260 -3.904013
v -10.175790 9.721260 -7.234526
v 5.301609 9.721260 9.890816
v 8.425930 9.721260 1.901552
v 8.425930 9.721260 -0.700787
v -10.175790 9.721260 -0.700787
v -6.082670 9.721260 1.901552
v -6.143892 9.721260 -0.700787
v -5.973951 9.721260 9.890815
v -3.447453 9.721260 1.901552
v -3.428180 9.721260 -0.700787
v -3.505935 9.721260 9.890815
v -6.217315 10.068427 -0.700787
v -5.967346 10.068427 9.890815
v -6.245359 10.068427 1.901551
v -3.412681 10.068427 -0.700787
v -3.477965 10.068427 9.890815
v -3.423201 10.068427 1.901552
v 4.947935 8.388539 -0.700787
v -9.778947 8.388539 -4.281102
v 8.965940 8.388539 -0.700787
v -6.166361 8.388539 -7.234526
v 8.425930 8.388539 9.890816
v 5.301609 8.388539 1.901552
v -3.437360 8.388539 -3.904014
v 8.425931 8.388539 -7.234525
v -9.778947 8.388539 -0.700788
v 8.965941 8.388539 -7.682379
v -10.175790 8.388539 1.901551
v -9.778947 8.388539 9.890814
v -3.437360 8.388539 -4.281102
v 8.965941 8.388539 -4.281101
v 4.947935 8.388539 -7.234525
v -6.166361 8.383215 -3.884482
v -10.175790 8.388539 -4.281102
v -6.166361 8.388539 -7.682379
v 5.301609 8.388539 -4.281101
v 4.947935 8.388539 -7.682379
v 5.301609 8.388539 9.890816
v 8.425930 8.388539 -0.700787
v -9.778947 8.388539 1.901551
v 4.947935 8.388539 1.901552
v -9.778947 8.388539 -7.234526
v 8.965941 8.388539 -3.904013
v -3.437360 8.388539 -7.234526
v 8.965940 8.388539 9.890816
v 5.301609 8.388539 -0.700787
v 4.947935 8.388539 -3.904013
v 8.425931 8.388539 -4.281101
v -9.778947 8.388539 -3.904014
v 8.425931 8.388539 -7.682379
v -10.175790 8.388539 9.890814
v 5.301609 8.388539 -7.682379
v -6.166361 8.388539 -4.281102
v 5.301609 8.388539 -3.904013
v 8.965941 8.388539 -7.234525
v 5.301609 8.388539 -7.234525
v -10.175790 8.388539 -3.904014
v -9.778947 8.388539 -7.682379
v 4.947935 8.388539 -4.281101
v 4.947935 8.388539 9.890816
v 8.965940 8.388539 1.901552
v -3.437360 8.388539 -7.682379
v -10.175790 8.388539 -7.682379
v 8.425931 8.388539 -3.904013
v -10.175790 8.388539 -7.234526
v 8.425930 8.388539 1.901552
v -10.175790 8.388539 -0.700787
vt 0.3195 0.4052
vt 0.3186 0.5548
vt 0.3127 0.5548
vt 0.3135 0.4052
vt 0.2459 0.6435
vt 0.2948 0.6435
vt 0.2948 0.7091
vt 0.2459 0.7091
vt 0.4515 0.3309
vt 0.4511 0.3985
vt 0.4452 0.3985
vt 0.4456 0.3309
vt 0.1434 0.9246
vt 0.1434 0.9902
vt 0.0110 0.9902
vt 0.0110 0.9246
vt 0.4507 0.4697
vt 0.4507 0.4767
vt 0.4447 0.4767
vt 0.4448 0.4696
vt 0.9820 0.6190
vt 0.9820 0.6797
vt 0.9367 0.6797
vt 0.9367 0.6190
vt 0.2459 0.5940
vt 0.2948 0.5940
vt 0.3180 0.6706
vt 0.3177 0.7259
vt 0.3117 0.7259
vt 0.3120 0.6706
vt 0.2459 0.4417
vt 0.2948 0.4417
vt 0.9367 0.3739
vt 0.9367 0.4264
vt 0.9309 0.4264
vt 0.9309 0.3739
vt 0.9820 0.3739
vt 0.9820 0.4264
vt 0.2459 0.4352
vt 0.2948 0.4352
vt 0.8420 0.3739
vt 0.8420 0.4264
vt 0.7195 0.4264
vt 0.7195 0.3739
vt 0.4530 0.0576
vt 0.4527 0.1161
vt 0.4468 0.1161
vt 0.4471 0.0576
vt 0.9820 0.4323
vt 0.9367 0.4323
vt 0.2459 0.3785
vt 0.2948 0.3785
vt 0.9820 0.5732
vt 0.9367 0.5732
vt 0.3183 0.6036
vt 0.3180 0.6636
vt 0.3121 0.6635
vt 0.3124 0.6035
vt 0.1434 0.8750
vt 0.0110 0.8750
vt 0.1434 0.7228
vt 0.0110 0.7228
vt 0.2396 0.3785
vt 0.2396 0.4352
vt 0.4412 0.0576
vt 0.4412 0.0475
vt 0.4472 0.0475
vt 0.4471 0.0576
vt 0.1865 0.7228
vt 0.1865 0.8750
vt 0.1865 0.9246
vt 0.1865 0.3785
vt 0.1865 0.4352
vt 0.8819 0.3739
vt 0.8818 0.4264
vt 0.1865 0.9902
vt 0.1434 0.3785
vt 0.1434 0.4352
vt 0.4531 0.0475
vt 0.4472 0.0475
vt 0.2396 0.9246
vt 0.2396 0.9902
vt 0.4500 0.5855
vt 0.4492 0.7351
vt 0.4433 0.7350
vt 0.4441 0.5854
vt 0.2396 0.8750
vt 0.2396 0.7228
vt 0.3022 0.3687
vt 0.3022 0.3785
vt 0.2948 0.3687
vt 0.1434 0.7091
vt 0.1434 0.7163
vt 0.0110 0.7163
vt 0.0110 0.7091
vt 0.3022 0.7091
vt 0.3022 0.7163
vt 0.2948 0.7163
vt 0.1434 0.3687
vt 0.0110 0.3785
vt 0.0110 0.3687
vt 0.3022 0.6435
vt 0.2459 0.3687
vt 0.2459 0.7163
vt 0.2396 0.7091
vt 0.2396 0.6435
vt 0.2396 0.3687
vt 0.2396 0.7163
vt 0.3022 0.4352
vt 0.2396 0.4417
vt 0.3022 0.4417
vt 0.1434 0.4417
vt 0.0110 0.4417
vt 0.0110 0.4352
vt 0.2396 0.5940
vt 0.3022 0.5940
vt 0.1865 0.4417
vt 0.1865 0.3687
vt 0.1865 0.7091
vt 0.1865 0.7163
vt 0.4527 0.1228
vt 0.4518 0.2798
vt 0.4459 0.2798
vt 0.4467 0.1227
vt 0.4511 0.4060
vt 0.4451 0.4059
vt 0.4392 0.4059
vt 0.4392 0.3985
vt 0.4452 0.3985
vt 0.4451 0.4059
vt 0.4468 0.1161
vt 0.4408 0.1161
vt 0.9367 0.7404
vt 0.9367 0.6797
vt 0.9820 0.6797
vt 0.9820 0.7404
vt 0.4510 0.4144
vt 0.4451 0.4143
vt 0.9820 0.7862
vt 0.9367 0.7862
vt 0.3176 0.7343
vt 0.3117 0.7343
vt 0.9819 0.9271
vt 0.9367 0.9270
vt 0.4408 0.1227
vt 0.4467 0.1227
vt 0.9819 0.9330
vt 0.9367 0.9330
vt 0.4503 0.5367
vt 0.4444 0.5367
vt 0.9819 0.9855
vt 0.9367 0.9855
vt 0.9309 0.9855
vt 0.9309 0.9330
vt 0.8818 0.9855
vt 0.8818 0.9330
vt 0.8419 0.9855
vt 0.8419 0.9330
vt 0.7195 0.9854
vt 0.7195 0.9330
vt 0.0303 0.3201
vt 0.1826 0.3213
vt 0.1824 0.3434
vt 0.0301 0.3422
vt 0.3768 0.8449
vt 0.4350 0.8450
vt 0.4350 0.8671
vt 0.3768 0.8670
vt 0.4823 0.8451
vt 0.6274 0.8453
vt 0.6273 0.8674
vt 0.4822 0.8672
vt 0.3414 0.5550
vt 0.3411 0.6037
vt 0.4313 0.9669
vt 0.5836 0.9671
vt 0.5835 0.9892
vt 0.4312 0.9889
vt 0.4731 0.5369
vt 0.4728 0.5856
vt 0.6810 0.1575
vt 0.6813 0.1088
vt 0.7041 0.1089
vt 0.7038 0.1577
vt 0.4755 0.1163
vt 0.4754 0.1229
vt 0.5900 0.9671
vt 0.6467 0.9672
vt 0.6467 0.9893
vt 0.5900 0.9892
vt 0.4734 0.4769
vt 0.4180 0.1226
vt 0.4181 0.1159
vt 0.4738 0.4145
vt 0.4735 0.4698
vt 0.0248 0.1982
vt 0.0904 0.1986
vt 0.0902 0.2208
vt 0.0246 0.2203
vt 0.3408 0.6637
vt 0.3407 0.6708
vt 0.6786 0.6810
vt 0.8128 0.6820
vt 0.8127 0.7024
vt 0.6785 0.7014
vt 0.3404 0.7261
vt 0.3404 0.7344
vt 0.2321 0.3217
vt 0.2977 0.3222
vt 0.2976 0.3443
vt 0.2319 0.3438
vt 0.4738 0.4061
vt 0.3161 0.9666
vt 0.3817 0.9668
vt 0.3817 0.9888
vt 0.3161 0.9887
vt 0.3700 0.8449
vt 0.3699 0.8670
vt 0.4164 0.4058
vt 0.4165 0.3984
vt 0.4746 0.2799
vt 0.4743 0.3310
vt 0.9103 0.6828
vt 0.9167 0.6828
vt 0.9165 0.7032
vt 0.9102 0.7032
vt 0.4739 0.3987
vt 0.4720 0.7352
vt 0.4759 0.0477
vt 0.4758 0.0578
vt 0.6816 0.0488
vt 0.7044 0.0489
vt 0.3163 0.8448
vt 0.3163 0.8669
vt 0.1400 0.1991
vt 0.2922 0.2003
vt 0.2921 0.2224
vt 0.1398 0.2212
vt 0.8565 0.6823
vt 0.8564 0.7028
vt 0.4184 0.0574
vt 0.4185 0.0473
vt 0.2948 0.7405
vt 0.2459 0.7405
vt 0.2459 0.7163
vt 0.2948 0.7163
vt 0.6791 0.5055
vt 0.6793 0.4568
vt 0.7021 0.4569
vt 0.7018 0.5056
vt 0.6802 0.3071
vt 0.7030 0.3073
vt 0.6787 0.5655
vt 0.7015 0.5656
vt 0.0239 0.3201
vt 0.0237 0.3422
vt 0.6802 0.3071
vt 0.7030 0.3073
vt 0.3422 0.4054
vt 0.9249 0.8258
vt 0.8628 0.8253
vt 0.8619 0.7028
vt 0.9258 0.7033
vt 0.9246 0.8656
vt 0.8635 0.8652
vt 0.8635 0.9143
vt 0.8177 0.9139
vt 0.8179 0.8648
vt 0.0110 0.6399
vt 0.1434 0.6450
vt 0.9242 0.9147
vt 0.8186 0.8249
vt 0.8205 0.7025
vt 0.6769 0.9128
vt 0.6772 0.8637
vt 0.6776 0.8239
vt 0.6785 0.7014
vt 0.1865 0.6444
vt 0.1865 0.5935
vt 0.4458 0.2805
vt 0.4399 0.2810
vt 0.4396 0.3272
vt 0.4456 0.3271
vt 0.0110 0.5947
vt 0.1434 0.5937
vt 0.4451 0.4059
vt 0.4443 0.5556
vt 0.5764 0.4562
vt 0.5773 0.3066
vt 0.0246 0.2203
vt 0.0310 0.2204
vt 0.5772 0.3316
vt 0.5768 0.3993
vt 0.5764 0.4704
vt 0.5763 0.4774
vt 0.5758 0.5649
vt 0.5762 0.5049
vt 0.5838 0.8674
vt 0.5902 0.8674
vt 0.4436 0.6713
vt 0.4433 0.7266
vt 0.8572 0.5901
vt 0.9110 0.5905
vt 0.5787 0.0583
vt 0.5784 0.1169
vt 0.5773 0.3066
vt 0.5781 0.1570
vt 0.2459 0.8750
vt 0.2459 0.9246
vt 0.2948 0.8499
vt 0.2459 0.8499
vt 0.4440 0.6043
vt 0.4437 0.6643
vt 0.3819 0.8670
vt 0.4315 0.8671
vt 0.3155 0.0569
vt 0.3156 0.0467
vt 0.2948 0.8256
vt 0.2952 0.7163
vt 0.3014 0.7163
vt 0.3014 0.8257
vt 0.1407 0.0993
vt 0.2930 0.1005
vt 0.3165 0.7450
vt 0.3702 0.7451
vt 0.5784 0.1082
vt 0.5788 0.0482
vt 0.5788 0.0482
vt 0.5757 0.5862
vt 0.5749 0.7358
vt 0.5783 0.1235
vt 0.5774 0.2805
vt 0.5767 0.4067
vt 0.9174 0.5905
vt 0.3135 0.4052
vt 0.3136 0.3978
vt 0.3770 0.7451
vt 0.3163 0.8669
vt 0.5767 0.4151
vt 0.2329 0.2219
vt 0.2985 0.2224
vt 0.4433 0.7350
vt 0.6794 0.5887
vt 0.8135 0.5897
vt 0.0256 0.0984
vt 0.0912 0.0990
vt 0.3151 0.1220
vt 0.3152 0.1154
vt 0.4352 0.7452
vt 0.4825 0.7453
vt 0.5760 0.5374
vt 0.6469 0.8675
vt 0.6275 0.7456
vt 0.1833 0.2215
vt 0.2579 0.8994
vt 0.2576 0.8499
vt 0.2642 0.8499
vt 0.2642 0.8994
vt 0.2948 0.9350
vt 0.2948 0.8257
vt 0.3011 0.8257
vt 0.3011 0.9350
vt 0.1434 0.7163
vt 0.1865 0.7163
vt 0.2517 0.8499
vt 0.2517 0.9592
vt 0.2459 0.9592
vt 0.2459 0.8499
vt 0.2642 0.8971
vt 0.2642 0.8499
vt 0.2700 0.8499
vt 0.2700 0.8971
vt 0.2517 0.9592
vt 0.2517 0.8499
vt 0.2576 0.8499
vt 0.2576 0.9592
vn 1.0000 0.0000 0.0000
vn 0.0000 1.0000 0.0000
vn 0.0000 0.0000 -1.0000
vn -1.0000 0.0000 0.0000
vn 0.0000 0.0000 1.0000
vn 0.0000 -1.0000 0.0000
vn -0.0027 0.0073 1.0000
vn 0.0036 0.0073 1.0000
vn -0.0027 -0.0016 1.0000
vn 0.0010 -1.0000 -0.0069
usemtl Material
s off
f 117/1/1 147/2/1 68/3/1 64/4/1
f 99/5/2 98/6/2 58/7/2 76/8/2
f 143/9/3 142/10/3 57/11/3 67/12/3
f 47/13/2 42/14/2 3/15/2 31/16/2
f 141/17/4 140/18/4 78/19/4 73/20/4
f 33/21/2 10/22/2 14/23/2 34/24/2
f 99/5/2 94/25/2 93/26/2 98/6/2
f 136/27/1 135/28/1 72/29/1 77/30/1
f 94/25/2 85/31/2 84/32/2 93/26/2
f 13/33/2 24/34/2 25/35/2 17/36/2
f 9/37/2 23/38/2 24/34/2 13/33/2
f 85/31/2 86/39/2 74/40/2 84/32/2
f 41/41/2 45/42/2 21/43/2 2/44/2
f 127/45/3 131/46/3 83/47/3 59/48/3
f 23/38/2 28/49/2 29/50/2 24/34/2
f 86/39/2 75/51/2 60/52/2 74/40/2
f 36/53/2 33/21/2 34/24/2 37/54/2
f 112/55/1 113/56/1 81/57/1 103/58/1
f 48/59/2 47/13/2 31/16/2 39/60/2
f 46/61/2 48/59/2 39/60/2 26/62/2
f 79/63/2 75/51/2 86/39/2 88/64/2
f 28/49/2 36/53/2 37/54/2 29/50/2
f 116/65/5 117/66/5 64/67/5 62/68/5
f 54/69/2 56/70/2 48/59/2 46/61/2
f 56/70/2 55/71/2 47/13/2 48/59/2
f 101/72/2 79/63/2 88/64/2 105/73/2
f 50/74/2 53/75/2 45/42/2 41/41/2
f 55/71/2 51/76/2 42/14/2 47/13/2
f 61/77/2 101/72/2 105/73/2 89/78/2
f 126/79/3 127/45/3 59/48/3 63/80/3
f 35/81/2 18/82/2 51/76/2 55/71/2
f 17/36/2 25/35/2 53/75/2 50/74/2
f 128/83/4 129/84/4 70/85/4 104/86/4
f 38/87/2 35/81/2 55/71/2 56/70/2
f 30/88/2 38/87/2 56/70/2 54/69/2
f 63/89/2 59/90/2 60/52/2 72/91/2
f 65/92/2 104/93/2 70/94/2 66/95/2
f 57/96/2 69/97/2 71/98/2 58/7/2
f 68/99/2 61/77/2 62/100/2 64/101/2
f 67/102/2 57/96/2 58/7/2 98/6/2
f 72/91/2 60/52/2 75/51/2 77/103/2
f 58/7/2 71/98/2 73/104/2 76/8/2
f 99/5/2 76/8/2 80/105/2 100/106/2
f 77/103/2 75/51/2 79/63/2 81/107/2
f 76/8/2 73/104/2 78/108/2 80/105/2
f 59/90/2 83/109/2 74/40/2 60/52/2
f 86/39/2 85/31/2 87/110/2 88/64/2
f 83/109/2 92/111/2 84/32/2 74/40/2
f 89/78/2 96/112/2 91/113/2 90/114/2
f 94/25/2 99/5/2 100/106/2 95/115/2
f 97/116/2 67/102/2 98/6/2 93/26/2
f 92/111/2 97/116/2 93/26/2 84/32/2
f 85/31/2 94/25/2 95/115/2 87/110/2
f 105/73/2 106/117/2 96/112/2 89/78/2
f 103/118/2 101/72/2 61/77/2 68/99/2
f 102/119/2 82/120/2 104/93/2 65/92/2
f 80/105/2 78/108/2 82/120/2 102/119/2
f 81/107/2 79/63/2 101/72/2 103/118/2
f 88/64/2 87/110/2 106/117/2 105/73/2
f 149/121/3 148/122/3 97/123/3 92/124/3
f 142/10/3 150/125/3 69/126/3 57/11/3
f 62/100/2 61/77/2 89/78/2 90/114/2
f 148/122/3 143/9/3 67/12/3 97/123/3
f 129/127/5 130/128/5 66/129/5 70/130/5
f 90/131/5 153/132/5 116/65/5 62/68/5
f 132/133/6 110/134/6 111/135/6 114/136/6
f 150/125/4 152/137/4 71/138/4 69/126/4
f 114/136/6 115/139/6 133/140/6 132/133/6
f 135/28/1 126/141/1 63/142/1 72/29/1
f 133/140/6 115/139/6 138/143/6 144/144/6
f 113/56/1 136/27/1 77/30/1 81/57/1
f 152/137/4 141/17/4 73/20/4 71/138/4
f 146/145/5 153/132/5 90/131/5 91/146/5
f 138/143/6 137/147/6 145/148/6 144/144/6
f 140/18/4 156/149/4 82/150/4 78/19/4
f 137/147/6 122/151/6 123/152/6 145/148/6
f 131/46/3 149/121/3 92/124/3 83/47/3
f 156/149/4 128/83/4 104/86/4 82/150/4
f 145/148/6 123/152/6 151/153/6 134/154/6
f 147/2/1 112/55/1 103/58/1 68/3/1
f 134/154/6 151/153/6 155/155/6 119/156/6
f 119/156/6 155/155/6 154/157/6 118/158/6
f 118/158/6 154/157/6 116/159/6 153/160/6
f 210/161/3 181/162/3 133/163/3 144/164/3
f 215/165/4 190/166/4 155/167/4 151/168/4
f 217/169/4 173/170/4 116/171/4 154/172/4
f 212/173/1 171/174/1 112/55/1 147/2/1
f 195/175/5 183/176/5 138/177/5 115/178/5
f 218/179/4 179/180/4 128/83/4 156/149/4
f 191/181/1 177/182/1 124/183/1 107/184/1
f 203/185/3 188/186/3 149/121/3 131/46/3
f 207/187/5 176/188/5 122/189/5 137/190/5
f 208/191/4 218/179/4 156/149/4 140/18/4
f 190/166/4 217/169/4 154/172/4 155/167/4
f 211/192/5 189/193/5 153/132/5 146/145/5
f 216/194/4 185/195/4 141/17/4 152/137/4
f 200/196/7 184/197/7 139/198/7 125/199/7
f 194/200/1 182/201/1 136/27/1 113/56/1
f 189/202/1 174/203/1 118/204/1 153/205/1
f 206/206/1 178/207/1 126/141/1 135/28/1
f 204/208/3 170/209/3 110/210/3 132/211/3
f 214/212/4 216/194/4 152/137/4 150/125/4
f 193/213/5 172/214/5 114/215/5 111/216/5
f 199/217/4 215/165/4 151/168/4 123/218/4
f 202/219/5 180/220/5 130/128/5 129/127/5
f 213/221/3 186/222/3 143/9/3 148/122/3
f 205/223/1 187/224/1 145/225/1 134/226/1
f 209/227/3 214/212/3 150/125/3 142/10/3
f 188/186/3 213/221/3 148/122/3 149/121/3
f 179/180/4 202/228/4 129/84/4 128/83/4
f 178/229/3 201/230/3 127/45/3 126/79/3
f 177/182/1 200/231/1 125/232/1 124/183/1
f 176/233/4 199/217/4 123/218/4 122/234/4
f 175/235/5 198/236/5 121/237/5 120/238/5
f 174/203/1 197/239/1 119/240/1 118/204/1
f 173/241/5 196/242/5 117/66/5 116/65/5
f 172/214/5 195/175/5 115/178/5 114/215/5
f 171/174/1 194/200/1 113/56/1 112/55/1
f 170/243/1 193/244/1 111/245/1 110/246/1
f 169/247/4 192/248/4 109/249/4 108/250/4
f 180/251/1 191/181/1 107/184/1 130/252/1
f 201/230/3 203/185/3 131/46/3 127/45/3
f 181/162/3 204/208/3 132/211/3 133/163/3
f 197/239/1 205/223/1 134/226/1 119/240/1
f 182/201/1 206/206/1 135/28/1 136/27/1
f 183/176/5 207/187/5 137/190/5 138/177/5
f 184/197/8 175/235/8 120/238/8 139/198/8
f 198/253/4 169/247/4 108/250/4 121/254/4
f 185/195/4 208/191/4 140/18/4 141/17/4
f 186/222/3 209/227/3 142/10/3 143/9/3
f 187/255/3 210/161/3 144/164/3 145/256/3
f 192/248/4 211/257/4 146/258/4 109/249/4
f 196/259/1 212/173/1 147/2/1 117/1/1
f 107/260/6 157/261/6 159/262/6 130/263/6
f 124/264/6 158/265/6 157/261/6 107/260/6
f 139/266/6 120/267/6 161/268/6 158/265/6
f 66/95/2 164/269/2 165/270/2 65/92/2
f 158/265/6 124/264/6 125/271/6 139/266/6
f 159/262/6 157/261/6 160/272/6 162/273/6
f 157/261/6 158/265/6 161/268/6 160/272/6
f 161/268/6 120/267/6 121/274/6 108/275/6
f 160/272/6 161/268/6 108/275/6 109/276/6
f 162/273/6 160/272/6 109/276/6 146/277/6
f 65/92/2 165/270/2 163/278/2 102/119/2
f 87/110/2 95/115/2 166/279/2 106/117/2
f 146/145/5 91/146/5 167/280/5 162/281/5
f 159/282/5 164/283/5 66/129/5 130/128/5
f 165/270/2 164/269/2 167/284/2 168/285/2
f 163/278/2 165/270/2 168/285/2 166/279/2
f 163/278/2 100/106/2 80/105/2 102/119/2
f 162/281/5 167/280/5 164/283/5 159/282/5
f 166/279/2 168/285/2 96/112/2 106/117/2
f 166/279/2 95/115/2 100/106/2 163/278/2
f 168/285/2 167/284/2 91/113/2 96/112/2
f 6/286/1 43/287/1 212/173/1 196/259/1
f 46/288/4 26/289/4 211/257/4 192/248/4
f 24/290/3 29/291/3 210/161/3 187/255/3
f 32/292/3 4/293/3 209/227/3 186/222/3
f 16/294/4 20/295/4 208/191/4 185/195/4
f 30/296/4 54/297/4 169/247/4 198/253/4
f 28/298/5 23/299/5 207/187/5 183/176/5
f 15/300/1 11/301/1 206/206/1 182/201/1
f 53/302/1 25/303/1 205/223/1 197/239/1
f 1/304/3 22/305/3 203/185/3 201/230/3
f 3/306/1 42/307/1 191/181/1 180/251/1
f 37/308/2 34/309/2 35/81/2 38/87/2
f 14/310/1 10/311/1 193/244/1 170/243/1
f 52/312/1 19/313/1 194/200/1 171/174/1
f 33/314/5 36/315/5 195/175/5 172/214/5
f 2/316/5 6/317/5 196/242/5 173/241/5
f 184/318/1 35/319/1 34/320/1 204/321/1
f 38/322/5 30/323/5 198/236/5 175/235/5
f 9/324/4 13/325/4 199/217/4 176/233/4
f 51/326/1 18/327/1 200/231/1 177/182/1
f 5/328/3 1/304/3 201/230/3 178/229/3
f 44/329/4 7/330/4 202/228/4 179/180/4
f 27/331/3 40/332/3 213/221/3 188/186/3
f 4/293/3 8/333/3 214/212/3 209/227/3
f 25/303/1 24/334/1 187/224/1 205/223/1
f 40/332/3 32/292/3 186/222/3 213/221/3
f 7/335/5 3/336/5 180/220/5 202/219/5
f 13/325/4 17/337/4 215/165/4 199/217/4
f 10/338/5 33/314/5 172/214/5 193/213/5
f 8/333/4 12/339/4 216/194/4 214/212/4
f 34/340/3 14/341/3 170/209/3 204/208/3
f 11/301/1 5/342/1 178/207/1 206/206/1
f 21/343/1 45/344/1 174/203/1 189/202/1
f 19/313/1 15/300/1 182/201/1 194/200/1
f 18/345/9 35/346/9 184/197/9 200/196/9
f 12/339/4 16/294/4 185/195/4 216/194/4
f 26/347/5 21/348/5 189/193/5 211/192/5
f 50/349/4 41/350/4 217/169/4 190/166/4
f 20/295/4 49/351/4 218/179/4 208/191/4
f 23/299/5 9/352/5 176/188/5 207/187/5
f 22/305/3 27/331/3 188/186/3 203/185/3
f 42/307/1 51/326/1 177/182/1 191/181/1
f 49/351/4 44/329/4 179/180/4 218/179/4
f 36/315/5 28/298/5 183/176/5 195/175/5
f 43/287/1 52/312/1 171/174/1 212/173/1
f 41/350/4 2/353/4 173/170/4 217/169/4
f 17/337/4 50/349/4 190/166/4 215/165/4
f 29/291/3 37/354/3 181/162/3 210/161/3
f 175/355/10 184/356/10 204/357/10 181/358/10
f 38/359/4 175/360/4 181/361/4 37/362/4
f 45/363/2 53/364/2 54/69/2 46/61/2
f 169/365/5 54/366/5 53/367/5 197/368/5
f 192/369/6 169/370/6 197/371/6 174/372/6
f 174/373/3 45/374/3 46/375/3 192/376/3
