# Blender v2.77 (sub 0) OBJ File: 'Hylly.blend'
# www.blender.org
mtllib Hylly.mtl
o Cube
v 1.000000 0.499192 -1.404305
v 1.000000 0.499192 1.476346
v -1.000000 0.499192 1.476346
v -1.000000 0.499192 -1.404305
v 1.000000 5.243112 -1.404305
v 0.999999 5.243112 1.476347
v -1.000000 5.243112 1.476346
v -1.000000 5.243112 -1.404305
v 1.000000 0.499192 1.266333
v -1.000000 0.499192 1.266333
v 0.999999 5.243112 1.266333
v -1.000000 5.243112 1.266333
v -1.000000 0.499192 -1.174232
v -1.000000 5.243112 -1.174232
v 1.000000 0.499192 -1.174232
v 1.000000 5.243112 -1.174231
v 1.000000 5.035106 -1.404305
v 0.999999 5.035106 1.476347
v -1.000000 5.035106 1.476346
v -1.000000 5.035106 -1.404305
v -1.000000 5.035106 1.266333
v 0.999999 5.035106 1.266333
v 1.000000 5.035106 -1.174231
v -1.000000 5.035106 -1.174232
v -1.000000 0.795271 1.266333
v 1.000000 0.795271 1.266333
v 1.000000 0.795271 -1.174232
v -1.000000 0.795271 -1.174232
v 1.000000 0.795271 -1.404305
v 1.000000 0.795271 1.476346
v -1.000000 0.795271 1.476346
v -1.000000 0.795271 -1.404305
v 1.000000 3.822416 -1.404305
v 1.000000 3.822416 1.476346
v -1.000000 3.822416 1.476346
v -1.000000 3.822416 -1.404305
v -1.000000 3.822416 1.266333
v 1.000000 3.822416 1.266333
v 1.000000 3.822416 -1.174231
v -1.000000 3.822416 -1.174232
v -1.000000 3.603469 1.266333
v 1.000000 3.603469 1.266333
v 1.000000 3.603469 -1.174231
v -1.000000 3.603469 -1.174232
v 1.000000 3.603469 -1.404305
v 1.000000 3.603469 1.476346
v -1.000000 3.603469 1.476346
v -1.000000 3.603469 -1.404305
v -1.000000 2.127255 1.266333
v 1.000000 2.127255 1.266333
v 1.000000 2.127255 -1.174232
v -1.000000 2.127255 -1.174232
v 1.000000 2.127256 -1.404305
v 1.000000 2.127256 1.476346
v -1.000000 2.127256 1.476346
v -1.000000 2.127256 -1.404305
v 1.000000 2.324035 -1.404305
v 1.000000 2.324035 1.476346
v -1.000000 2.324035 1.476346
v -1.000000 2.324035 -1.404305
v -1.000000 2.324034 1.266333
v 1.000000 2.324034 1.266333
v 1.000000 2.324034 -1.174232
v -1.000000 2.324034 -1.174232
v -0.751053 5.035106 -1.174231
v -0.751054 5.035106 1.266333
v -0.751053 2.127255 1.266333
v -0.751053 0.795271 1.266333
v -0.751053 2.127255 -1.174232
v -0.751053 0.795271 -1.174232
v -0.751054 3.822416 1.266333
v -0.751053 3.822416 -1.174231
v -0.751053 3.603469 -1.174231
v -0.751054 3.603469 1.266333
v -0.751053 2.324034 1.266333
v -0.751053 2.324034 -1.174232
v -0.793686 0.499192 -1.404305
v -0.793686 0.499192 1.476346
v -0.793686 5.243112 -1.404305
v -0.793687 5.243112 1.476346
v -0.793686 5.243112 1.266333
v -0.793686 0.499192 1.266333
v -0.793686 0.499192 -1.174232
v -0.793686 5.243112 -1.174232
v -0.793686 5.035106 -1.404305
v -0.793687 5.035106 1.476346
v -0.793686 0.795271 1.476346
v -0.793686 0.795271 -1.404305
v -0.793686 3.822416 -1.404305
v -0.793686 3.822416 1.476346
v -0.793686 3.603469 1.476346
v -0.793686 3.603469 -1.404305
v -0.793686 2.127256 1.476346
v -0.793686 2.127256 -1.404305
v -0.793686 2.324035 -1.404305
v -0.793686 2.324035 1.476346
v 0.801947 5.243112 1.266333
v 0.801948 5.243112 -1.174231
v 0.801948 0.499192 -1.404305
v 0.801948 0.499192 1.476346
v 0.801948 5.243112 -1.404305
v 0.801947 5.243112 1.476347
v 0.801948 0.499192 1.266333
v 0.801948 0.499192 -1.174232
v 0.801948 5.035106 -1.404305
v 0.801947 5.035106 1.476347
v 0.801948 0.795271 1.476346
v 0.801948 0.795271 -1.404305
v 0.801948 3.822416 -1.404305
v 0.801948 3.822416 1.476346
v 0.801948 3.603469 1.476346
v 0.801948 3.603469 -1.404305
v 0.801948 2.127256 1.476346
v 0.801948 2.127256 -1.404305
v 0.801948 2.324035 -1.404305
v 0.801948 2.324035 1.476346
v 1.000000 0.289906 1.266333
v 1.000000 0.289906 1.476346
v -0.793686 0.289906 -1.404305
v -1.000000 0.289906 -1.404305
v -0.793686 0.289906 1.476346
v -1.000000 0.289906 1.476346
v -1.000000 0.289906 -1.174232
v -1.000000 0.289906 1.266333
v -0.793686 0.289906 1.266333
v 1.000000 0.289906 -1.404305
v 1.000000 0.289906 -1.174232
v -0.793686 0.289906 -1.174232
v 0.801948 0.289906 -1.404305
v 0.801948 0.289906 1.476346
v 0.801948 0.289906 1.266333
v 0.801948 0.289906 -1.174232
vt 0.8841 0.3221
vt 0.8841 0.3023
vt 0.9031 0.3023
vt 0.9031 0.3221
vt 0.0187 0.4457
vt 0.0000 0.4457
vt 0.0000 0.4275
vt 0.0187 0.4275
vt 0.5028 0.0180
vt 0.5028 0.0000
vt 0.5218 0.0000
vt 0.5218 0.0180
vt 0.6843 0.0180
vt 0.6843 0.0000
vt 0.7030 0.0000
vt 0.7030 0.0180
vt 0.2401 0.0180
vt 0.2401 0.0000
vt 0.2609 0.0000
vt 0.2609 0.0180
vt 0.8654 0.0436
vt 0.8654 0.0181
vt 0.8841 0.0181
vt 0.8841 0.0436
vt 0.0000 0.0180
vt 0.0000 0.0000
vt 0.0190 0.0000
vt 0.0190 0.0180
vt 0.2817 0.0180
vt 0.2817 0.0000
vt 0.0187 0.6563
vt 0.0000 0.6563
vt 0.1998 0.4474
vt 0.1998 0.6581
vt 0.1811 0.6581
vt 0.1811 0.4474
vt 0.6843 0.4095
vt 0.7030 0.4095
vt 0.7030 0.4275
vt 0.6843 0.4275
vt 0.0187 0.6762
vt 0.0000 0.6762
vt 0.2609 0.0180
vt 0.2609 0.0000
vt 0.0190 0.1226
vt 0.2401 0.1226
vt 0.2609 0.1226
vt 0.2817 0.1226
vt 0.8841 0.0000
vt 1.0000 0.0000
vt 1.0000 0.1511
vt 0.8841 0.1511
vt 0.0000 0.1226
vt 0.8654 0.4275
vt 0.8654 0.4096
vt 0.8841 0.4096
vt 0.8841 0.4275
vt 0.2609 0.1226
vt 0.6843 0.1226
vt 0.7030 0.1226
vt 0.5028 0.1226
vt 0.5218 0.1226
vt 0.5028 0.4095
vt 0.5028 0.3839
vt 0.5218 0.3839
vt 0.5218 0.4095
vt 0.6843 0.3839
vt 0.7030 0.3839
vt 0.2401 0.4095
vt 0.2401 0.3839
vt 0.2609 0.3839
vt 0.2609 0.4095
vt 0.0000 0.4095
vt 0.0000 0.3839
vt 0.0190 0.3839
vt 0.0190 0.4095
vt 0.2817 0.4095
vt 0.2817 0.3839
vt 0.2609 0.4095
vt 0.2609 0.3839
vt 0.8654 0.1586
vt 0.8841 0.1586
vt 0.8654 0.3049
vt 0.8841 0.3049
vt 0.5028 0.1415
vt 0.5218 0.1415
vt 0.6843 0.1415
vt 0.7030 0.1415
vt 0.2401 0.1415
vt 0.2609 0.1415
vt 0.0000 0.1415
vt 0.0190 0.1415
vt 0.2817 0.1415
vt 0.2609 0.1415
vt 0.0190 0.2520
vt 0.2401 0.2520
vt 0.2609 0.2520
vt 0.2817 0.2520
vt 0.6795 0.4275
vt 0.6795 0.6382
vt 0.5209 0.6382
vt 0.5209 0.4275
vt 0.0000 0.2520
vt 0.2609 0.2520
vt 0.6843 0.2520
vt 0.7030 0.2520
vt 0.5028 0.2520
vt 0.5218 0.2520
vt 0.8654 0.2860
vt 0.8841 0.2860
vt 0.5028 0.2689
vt 0.5218 0.2689
vt 0.6843 0.2689
vt 0.7030 0.2689
vt 0.2401 0.2689
vt 0.2609 0.2689
vt 0.0000 0.2689
vt 0.0190 0.2689
vt 0.8841 0.1511
vt 0.9940 0.1511
vt 0.9940 0.3023
vt 0.8841 0.3023
vt 0.2609 0.2689
vt 0.2817 0.2689
vt 0.8654 0.1756
vt 0.8841 0.1756
vt 0.2365 0.6762
vt 0.3464 0.6762
vt 0.3464 0.8868
vt 0.2365 0.8868
vt 0.2365 0.8868
vt 0.1206 0.8868
vt 0.1206 0.6762
vt 0.2365 0.6762
vt 0.1206 0.8868
vt 0.0000 0.8868
vt 0.0000 0.6762
vt 0.1206 0.6762
vt 0.8381 0.4275
vt 0.9587 0.4275
vt 0.9587 0.5787
vt 0.8381 0.5787
vt 0.6795 0.6382
vt 0.6795 0.4275
vt 0.8381 0.4275
vt 0.8381 0.6382
vt 0.3623 0.8489
vt 0.4721 0.8489
vt 0.4721 1.0000
vt 0.3623 1.0000
vt 0.6795 0.6382
vt 0.6795 0.8489
vt 0.5209 0.8489
vt 0.5209 0.6382
vt 0.5209 0.6382
vt 0.5209 0.8489
vt 0.3623 0.8489
vt 0.3623 0.6382
vt 0.8381 0.7298
vt 0.9540 0.7298
vt 0.9540 0.8810
vt 0.8381 0.8810
vt 0.9587 0.7298
vt 0.8381 0.7298
vt 0.8381 0.5787
vt 0.9587 0.5787
vt 0.8381 0.6382
vt 0.8381 0.8489
vt 0.6795 0.8489
vt 0.6795 0.6382
vt 0.5209 0.4275
vt 0.5209 0.6382
vt 0.3623 0.6382
vt 0.3623 0.4275
vt 0.5398 0.2689
vt 0.5398 0.2520
vt 0.7209 0.2860
vt 0.7209 0.1756
vt 0.7209 0.1586
vt 0.5398 0.3839
vt 0.7209 0.3049
vt 0.5398 0.1415
vt 0.5398 0.1226
vt 0.7209 0.4096
vt 0.7209 0.0436
vt 0.5398 0.4095
vt 0.5398 0.0180
vt 0.7209 0.4275
vt 0.1632 0.6762
vt 0.1632 0.6563
vt 0.3444 0.4275
vt 0.3444 0.4474
vt 0.1998 0.4275
vt 0.3444 0.6581
vt 0.1632 0.4457
vt 0.7209 0.0181
vt 0.5398 0.0000
vt 0.1632 0.4275
vt 0.3444 0.6762
vt 0.1998 0.6762
vt 0.5461 0.8489
vt 0.5641 0.8489
vt 0.5641 0.8669
vt 0.5461 0.8669
vt 0.1811 0.4457
vt 0.1811 0.4275
vt 0.7030 0.0436
vt 0.7030 0.0181
vt 0.1811 0.6563
vt 0.3623 0.4474
vt 0.3623 0.6581
vt 0.8841 0.3998
vt 0.8841 0.3817
vt 0.9031 0.3817
vt 0.9031 0.3998
vt 0.1811 0.6762
vt 0.7030 0.4275
vt 0.7030 0.4096
vt 0.7030 0.1586
vt 0.7030 0.3049
vt 0.7030 0.2860
vt 0.7030 0.1756
vt 0.4908 0.8489
vt 0.4908 0.8670
vt 0.4721 0.8670
vt 0.4721 0.8489
vt 0.9028 0.3420
vt 0.9028 0.3619
vt 0.8841 0.3619
vt 0.8841 0.3420
vt 0.5461 0.8489
vt 0.5461 0.8670
vt 0.5282 0.8670
vt 0.5282 0.8489
vt 0.9021 0.3619
vt 0.9021 0.3817
vt 0.8841 0.3817
vt 0.8841 0.3619
vt 0.5095 0.8489
vt 0.5282 0.8489
vt 0.5282 0.8669
vt 0.5095 0.8669
vt 0.7030 0.0000
vt 0.7209 0.0000
vt 0.2609 0.4275
vt 0.2401 0.4275
vt 0.0190 0.4275
vt 0.0000 0.4275
vt 0.5398 0.4275
vt 0.5218 0.4275
vt 0.8841 0.3420
vt 0.8841 0.3221
vt 0.9031 0.3221
vt 0.9031 0.3420
vt 0.2817 0.4275
vt 0.2609 0.4275
vt 0.5028 0.4275
vt 0.8841 0.4180
vt 0.8841 0.3998
vt 0.9031 0.3998
vt 0.9031 0.4180
vt 0.8654 0.0000
vt 0.8841 0.0000
vt 0.5820 0.8669
vt 0.5641 0.8669
vt 0.5641 0.8489
vt 0.5820 0.8489
vt 0.4908 0.8489
vt 0.5095 0.8489
vt 0.5095 0.8669
vt 0.4908 0.8669
vn 1.0000 0.0000 0.0000
vn 0.0000 1.0000 -0.0000
vn -0.0000 0.0000 1.0000
vn -1.0000 0.0000 -0.0000
vn 0.0000 0.0000 -1.0000
vn 0.0000 -1.0000 0.0000
usemtl Material
s off
f 77/1/1 83/2/1 128/3/1 119/4/1
f 81/5/2 12/6/2 7/7/2 80/8/2
f 22/9/1 11/10/1 6/11/1 18/12/1
f 86/13/3 80/14/3 7/15/3 19/16/3
f 24/17/4 14/18/4 8/19/4 20/20/4
f 88/21/5 77/22/5 4/23/5 32/24/5
f 19/25/4 7/26/4 12/27/4 21/28/4
f 23/29/1 16/30/1 11/10/1 22/9/1
f 84/31/2 14/32/2 12/6/2 81/5/2
f 83/33/6 82/34/6 10/35/6 13/36/6
f 78/37/3 3/38/3 122/39/3 121/40/3
f 79/41/2 8/42/2 14/32/2 84/31/2
f 17/43/1 5/44/1 16/30/1 23/29/1
f 21/28/4 12/27/4 14/18/4 24/17/4
f 37/45/4 21/28/4 24/17/4 40/46/4
f 33/47/1 17/43/1 23/29/1 39/48/1
f 42/49/5 62/50/5 75/51/5 74/52/5
f 35/53/4 19/25/4 21/28/4 37/45/4
f 79/54/5 85/55/5 20/56/5 8/57/5
f 40/46/4 24/17/4 20/20/4 36/58/4
f 90/59/3 86/13/3 19/16/3 35/60/3
f 38/61/1 22/9/1 18/12/1 34/62/1
f 9/63/1 26/64/1 30/65/1 2/66/1
f 78/37/3 87/67/3 31/68/3 3/38/3
f 13/69/4 28/70/4 32/71/4 4/72/4
f 3/73/4 31/74/4 25/75/4 10/76/4
f 15/77/1 27/78/1 26/64/1 9/63/1
f 1/79/1 29/80/1 27/78/1 15/77/1
f 10/76/4 25/75/4 28/70/4 13/69/4
f 94/81/5 88/21/5 32/24/5 56/82/5
f 85/55/5 89/83/5 36/84/5 20/56/5
f 42/85/1 38/61/1 34/62/1 46/86/1
f 91/87/3 90/59/3 35/60/3 47/88/3
f 44/89/4 40/46/4 36/58/4 48/90/4
f 47/91/4 35/53/4 37/45/4 41/92/4
f 43/93/1 39/48/1 38/61/1 42/85/1
f 45/94/1 33/47/1 39/48/1 43/93/1
f 41/92/4 37/45/4 40/46/4 44/89/4
f 61/95/4 41/92/4 44/89/4 64/96/4
f 57/97/1 45/94/1 43/93/1 63/98/1
f 23/99/6 22/100/6 66/101/6 65/102/6
f 59/103/4 47/91/4 41/92/4 61/95/4
f 64/96/4 44/89/4 48/90/4 60/104/4
f 96/105/3 91/87/3 47/88/3 59/106/3
f 62/107/1 42/85/1 46/86/1 58/108/1
f 89/83/5 92/109/5 48/110/5 36/84/5
f 26/64/1 50/111/1 54/112/1 30/65/1
f 87/67/3 93/113/3 55/114/3 31/68/3
f 28/70/4 52/115/4 56/116/4 32/71/4
f 31/74/4 55/117/4 49/118/4 25/75/4
f 22/119/5 38/120/5 71/121/5 66/122/5
f 29/80/1 53/123/1 51/124/1 27/78/1
f 25/75/4 49/118/4 52/115/4 28/70/4
f 95/125/5 94/81/5 56/82/5 60/126/5
f 92/109/5 95/125/5 60/126/5 48/110/5
f 50/111/1 62/107/1 58/108/1 54/112/1
f 93/113/3 96/105/3 59/106/3 55/114/3
f 52/115/4 64/96/4 60/104/4 56/116/4
f 55/117/4 59/103/4 61/95/4 49/118/4
f 51/124/1 63/98/1 62/107/1 50/111/1
f 53/123/1 57/97/1 63/98/1 51/124/1
f 49/118/4 61/95/4 64/96/4 52/115/4
f 72/127/1 65/128/1 66/129/1 71/130/1
f 76/131/1 73/132/1 74/133/1 75/134/1
f 70/135/1 69/136/1 67/137/1 68/138/1
f 50/139/5 26/140/5 68/141/5 67/142/5
f 43/143/6 42/144/6 74/145/6 73/146/6
f 39/147/3 23/148/3 65/149/3 72/150/3
f 26/151/2 27/152/2 70/153/2 68/154/2
f 38/155/2 39/156/2 72/157/2 71/158/2
f 63/159/3 43/160/3 73/161/3 76/162/3
f 27/163/3 51/164/3 69/165/3 70/166/3
f 62/167/2 63/168/2 76/169/2 75/170/2
f 51/171/6 50/172/6 67/173/6 69/174/6
f 113/175/3 116/176/3 96/105/3 93/113/3
f 112/177/5 115/178/5 95/125/5 92/109/5
f 115/178/5 114/179/5 94/81/5 95/125/5
f 107/180/3 113/175/3 93/113/3 87/67/3
f 109/181/5 112/177/5 92/109/5 89/83/5
f 116/176/3 111/182/3 91/87/3 96/105/3
f 111/182/3 110/183/3 90/59/3 91/87/3
f 105/184/5 109/181/5 89/83/5 85/55/5
f 114/179/5 108/185/5 88/21/5 94/81/5
f 100/186/3 107/180/3 87/67/3 78/37/3
f 110/183/3 106/187/3 86/13/3 90/59/3
f 101/188/5 105/184/5 85/55/5 79/54/5
f 101/189/2 79/41/2 84/31/2 98/190/2
f 99/191/6 104/192/6 83/33/6 77/193/6
f 104/192/6 103/194/6 82/34/6 83/33/6
f 98/190/2 84/31/2 81/5/2 97/195/2
f 108/185/5 99/196/5 77/22/5 88/21/5
f 106/187/3 102/197/3 80/14/3 86/13/3
f 97/195/2 81/5/2 80/8/2 102/198/2
f 103/194/6 100/199/6 78/200/6 82/34/6
f 15/201/3 104/202/3 132/203/3 127/204/3
f 11/205/2 97/195/2 102/198/2 6/206/2
f 18/12/3 6/11/3 102/197/3 106/187/3
f 29/207/5 1/208/5 99/196/5 108/185/5
f 16/209/2 98/190/2 97/195/2 11/205/2
f 15/210/6 9/211/6 103/194/6 104/192/6
f 82/212/1 78/213/1 121/214/1 125/215/1
f 5/216/2 101/189/2 98/190/2 16/209/2
f 5/217/5 17/218/5 105/184/5 101/188/5
f 34/62/3 18/12/3 106/187/3 110/183/3
f 2/66/3 30/65/3 107/180/3 100/186/3
f 53/219/5 29/207/5 108/185/5 114/179/5
f 17/218/5 33/220/5 109/181/5 105/184/5
f 46/86/3 34/62/3 110/183/3 111/182/3
f 58/108/3 46/86/3 111/182/3 116/176/3
f 33/220/5 45/221/5 112/177/5 109/181/5
f 30/65/3 54/112/3 113/175/3 107/180/3
f 57/222/5 53/219/5 114/179/5 115/178/5
f 45/221/5 57/222/5 115/178/5 112/177/5
f 54/112/3 58/108/3 116/176/3 113/175/3
f 125/223/6 121/224/6 122/225/6 124/226/6
f 119/227/6 128/228/6 123/229/6 120/230/6
f 117/231/6 118/232/6 130/233/6 131/234/6
f 126/235/6 127/236/6 132/237/6 129/238/6
f 10/239/5 82/240/5 125/241/5 124/242/5
f 99/196/5 1/208/5 126/243/5 129/244/5
f 13/69/4 4/72/4 120/245/4 123/246/4
f 3/73/4 10/76/4 124/247/4 122/248/4
f 2/66/3 100/186/3 130/249/3 118/250/3
f 104/251/4 99/252/4 129/253/4 132/254/4
f 1/79/1 15/77/1 127/255/1 126/256/1
f 9/63/1 2/66/1 118/250/1 117/257/1
f 100/258/4 103/259/4 131/260/4 130/261/4
f 4/23/5 77/22/5 119/262/5 120/263/5
f 103/264/5 9/265/5 117/266/5 131/267/5
f 83/268/3 13/269/3 123/270/3 128/271/3
