# Blender v2.77 (sub 0) OBJ File: 'Lamp.blend'
# www.blender.org
mtllib Lamp.mtl
o Cube
v 0.795846 -1.000000 -0.801040
v 0.794670 -1.000000 0.804965
v -0.799671 -1.000000 0.803865
v -0.800976 -1.000000 -0.800013
v 0.377480 0.116520 -0.385092
v 0.376089 0.116520 0.392162
v -0.387381 0.116520 0.390861
v -0.388923 0.116520 -0.383877
v -0.007615 -1.000000 -1.064584
v -0.007564 -1.000000 1.091098
v -0.007055 0.116520 -0.511223
v -0.006995 0.116520 0.528796
v 1.035922 -1.000000 0.000000
v -1.072068 -1.000000 -0.000000
v 0.493258 0.116520 0.001216
v -0.519416 0.116520 0.001216
v 1.299704 -1.000000 0.000000
v 1.000000 -1.000000 1.000000
v -0.008271 -1.000000 -1.330723
v -1.000000 -1.000000 -1.000000
v -0.008272 -1.000000 1.359620
v -1.000000 -1.000000 1.000000
v -1.338859 -1.000000 -0.000000
v 1.000000 -1.000000 -1.000000
v -0.008098 -0.454219 0.001264
v -0.007659 -0.454219 -0.710198
v -0.007625 -0.454219 0.730445
v 0.689737 -0.454219 0.001264
v -0.719033 -0.454219 0.001264
v 0.528509 -0.454219 0.539223
v -0.537863 -0.454219 -0.533385
v -0.536990 -0.454219 0.538487
v 0.529295 -0.454219 -0.534072
v 0.804949 0.116520 0.001216
v 0.618711 0.116520 0.622618
v -0.007831 0.116520 -0.825699
v -0.624093 0.116520 -0.620187
v -0.007831 0.116520 0.846087
v -0.624094 0.116520 0.622618
v -0.834662 0.116520 0.001216
v 0.618712 0.116520 -0.620187
v -0.007269 0.459979 0.108957
v -0.007338 0.459979 -0.096523
v 0.086483 0.459979 0.002844
v -0.519416 0.309186 0.001216
v 0.062094 0.459979 0.084218
v -0.081357 0.459979 -0.071839
v -0.079593 0.459979 0.082731
v 0.063684 0.459979 -0.073228
v 0.493258 0.309186 0.001216
v 0.376089 0.309186 0.392162
v -0.007055 0.309186 -0.511223
v -0.388923 0.309186 -0.383877
v -0.006995 0.309186 0.528796
v -0.387381 0.309186 0.390861
v -0.106664 0.459979 0.002844
v 0.377480 0.309186 -0.385092
v -0.008224 2.972813 0.002844
v -0.007269 2.972813 0.108957
v -0.007338 2.972813 -0.096523
v 0.086483 2.972813 0.002844
v -0.106664 2.972813 0.002844
v 0.062094 2.972813 0.084218
v -0.081357 2.972813 -0.071839
v -0.079593 2.972813 0.082731
v 0.063684 2.972813 -0.073228
vt 0.9247 0.0000
vt 0.9181 0.1599
vt 0.8330 0.1326
vt 0.8373 0.0257
vt 0.2311 0.8514
vt 0.2254 0.9220
vt 0.1932 0.9236
vt 0.1990 0.8530
vt 0.8139 0.4843
vt 0.6520 0.5075
vt 0.6612 0.3952
vt 0.8287 0.3036
vt 0.4413 0.5084
vt 0.6464 0.4861
vt 0.6520 0.5833
vt 0.4502 0.6647
vt 0.1911 0.6502
vt 0.0000 0.6830
vt 0.0013 0.5826
vt 0.1932 0.4887
vt 0.1932 0.6847
vt 0.3841 0.6512
vt 0.3863 0.8514
vt 0.1945 0.8091
vt 0.1945 0.5837
vt 0.3863 0.4887
vt 0.4502 0.3036
vt 0.6520 0.3589
vt 0.2345 0.9891
vt 0.2311 0.9292
vt 0.2643 0.9309
vt 0.2677 0.9909
vt 0.7155 0.1437
vt 0.7289 0.0000
vt 0.8330 0.0533
vt 0.8240 0.1494
vt 0.8306 0.5927
vt 0.8287 0.4297
vt 0.9260 0.4505
vt 0.9272 0.5595
vt 0.3364 0.8514
vt 0.3356 0.9134
vt 0.3020 0.9138
vt 0.3029 0.8518
vt 0.1932 0.8523
vt 0.0013 0.8086
vt 0.8287 0.6820
vt 0.6612 0.6303
vt 0.2311 0.9984
vt 0.1990 1.0000
vt 0.7289 0.3035
vt 0.8330 0.2561
vt 0.1333 0.0521
vt 0.0491 0.1837
vt 0.0056 0.1677
vt 0.1101 0.0042
vt 0.1628 0.4403
vt 0.3084 0.4403
vt 0.3302 0.4887
vt 0.1483 0.4887
vt 0.3965 0.1489
vt 0.2815 0.0487
vt 0.2964 0.0000
vt 0.4404 0.1254
vt 0.3972 0.3114
vt 0.4413 0.3275
vt 0.0447 0.3437
vt 0.0000 0.3675
vt 0.5346 0.7972
vt 0.5746 0.6647
vt 0.6515 0.7317
vt 0.6520 0.8403
vt 0.4193 0.7549
vt 0.4756 0.6670
vt 0.4164 0.8619
vt 0.4953 0.9264
vt 0.5926 0.9264
vt 0.8228 0.9740
vt 0.8213 0.8139
vt 0.9184 0.8333
vt 0.9194 0.9402
vt 0.9247 0.2884
vt 0.8373 0.2184
vt 0.8306 0.3036
vt 0.9272 0.3663
vt 0.8228 0.6820
vt 0.9194 0.7451
vt 0.6605 0.1231
vt 0.6197 0.0592
vt 0.6470 0.0026
vt 0.7120 0.1042
vt 0.5361 0.2465
vt 0.6061 0.2465
vt 0.6233 0.3036
vt 0.5102 0.3036
vt 0.5489 0.0576
vt 0.4937 0.1057
vt 0.4418 0.0779
vt 0.5313 0.0000
vt 0.4933 0.1844
vt 0.4413 0.2035
vt 0.6627 0.2003
vt 0.7155 0.2284
vt 0.9529 0.7848
vt 0.9419 0.7845
vt 0.9419 0.3036
vt 0.9529 0.3040
vt 0.9872 0.3036
vt 1.0000 0.3036
vt 1.0000 0.7804
vt 0.9872 0.7804
vt 0.9272 0.7845
vt 0.9272 0.3037
vt 0.3863 0.4887
vt 0.3996 0.4906
vt 0.3996 0.9525
vt 0.3863 0.9505
vt 0.3012 0.9136
vt 0.3020 0.9923
vt 0.2685 0.9927
vt 0.2677 0.9140
vt 0.2345 0.8514
vt 0.2677 0.8531
vt 0.3020 0.8514
vt 0.2685 0.8518
vt 0.3364 0.9904
vt 0.3029 0.9909
vt 0.7519 0.7719
vt 0.7434 0.7586
vt 0.7783 0.6836
vt 0.8192 0.7475
vt 0.7283 0.7956
vt 0.7419 0.7956
vt 0.7648 0.8709
vt 0.6947 0.8709
vt 0.7306 0.7583
vt 0.7201 0.7674
vt 0.6523 0.7301
vt 0.7075 0.6820
vt 0.7200 0.7836
vt 0.6520 0.8089
vt 0.7523 0.7871
vt 0.8213 0.8247
vt 0.3526 0.8707
vt 0.3364 0.8767
vt 0.3365 0.8605
vt 0.3470 0.8514
vt 0.3683 0.8650
vt 0.3598 0.8517
vt 0.3687 0.8802
vt 0.3583 0.8887
vt 0.3447 0.8887
vt 0.9664 0.7845
vt 0.9529 0.7845
vt 0.9529 0.3036
vt 0.9664 0.3037
vt 0.4133 0.4901
vt 0.4133 0.9519
vt 0.9769 0.7848
vt 0.9769 0.3040
vt 0.9769 0.3049
vt 0.9769 0.7816
vn 0.2694 -0.5244 0.8077
vn 0.9579 0.0000 0.2871
vn 0.8819 0.3905 0.2643
vn -0.3129 0.3970 0.8628
vn -0.8707 0.3935 -0.2950
vn -0.2907 0.3944 -0.8717
vn 0.2864 0.3948 -0.8730
vn 0.3083 0.3974 0.8643
vn -0.3409 0.0000 0.9401
vn 0.8073 -0.5229 0.2736
vn -0.2852 -0.5284 -0.7996
vn 0.3117 0.0000 -0.9502
vn -0.8709 0.3930 0.2951
vn 0.8817 0.3910 -0.2642
vn 0.9579 0.0000 -0.2871
vn 0.8079 -0.5219 -0.2738
vn 0.0000 -1.0000 0.0000
vn -0.8184 -0.5197 0.2453
vn -0.2652 -0.5251 0.8087
vn 0.2896 -0.5277 -0.7986
vn -0.8189 -0.5188 -0.2454
vn 0.0000 1.0000 0.0000
vn -0.9471 0.0000 -0.3209
vn 0.3359 0.0000 0.9419
vn -0.9471 0.0000 0.3209
vn -0.3164 0.0000 -0.9486
vn 0.3461 0.9325 0.1037
vn -0.1132 0.9337 -0.3396
vn -0.1217 0.9341 0.3356
vn -0.3405 0.9332 -0.1154
vn 0.1114 0.9340 -0.3395
vn 0.1197 0.9344 0.3355
vn 0.3454 0.9327 -0.1035
vn -0.3413 0.9328 0.1156
usemtl Material
s off
f 4/1/1 9/2/1 26/3/1 31/4/1
f 6/5/2 15/6/2 50/7/2 51/8/2
f 17/9/3 34/10/3 35/11/3 18/12/3
f 21/13/4 38/14/4 39/15/4 22/16/4
f 23/17/5 40/18/5 37/19/5 20/20/5
f 36/21/6 19/22/6 20/23/6 37/24/6
f 41/25/7 24/26/7 19/22/7 36/21/7
f 18/27/8 35/28/8 38/14/8 21/13/8
f 7/29/9 12/30/9 54/31/9 55/32/9
f 14/33/10 4/34/10 31/35/10 29/36/10
f 2/37/11 10/38/11 27/39/11 30/40/11
f 5/41/12 11/42/12 52/43/12 57/44/12
f 22/45/13 39/46/13 40/18/13 23/17/13
f 24/47/14 41/48/14 34/10/14 17/9/14
f 15/6/15 5/49/15 57/50/15 50/7/15
f 3/51/16 14/33/16 29/36/16 32/52/16
f 2/53/17 13/54/17 17/55/17 18/56/17
f 9/57/17 4/58/17 20/59/17 19/60/17
f 3/61/17 10/62/17 21/63/17 22/64/17
f 4/58/17 14/65/17 23/66/17 20/59/17
f 1/67/17 9/57/17 19/60/17 24/68/17
f 10/62/17 2/53/17 18/56/17 21/63/17
f 13/54/17 1/67/17 24/68/17 17/55/17
f 14/65/17 3/61/17 22/64/17 23/66/17
f 25/69/17 27/70/17 32/71/17 29/72/17
f 28/73/17 30/74/17 27/70/17 25/69/17
f 33/75/17 28/73/17 25/69/17 26/76/17
f 26/76/17 25/69/17 29/72/17 31/77/17
f 1/78/18 13/79/18 28/80/18 33/81/18
f 9/2/19 1/82/19 33/83/19 26/3/19
f 10/38/20 3/84/20 32/85/20 27/39/20
f 13/79/21 2/86/21 30/87/21 28/80/21
f 15/88/22 6/89/22 35/90/22 34/91/22
f 8/92/22 11/93/22 36/94/22 37/95/22
f 12/96/22 7/97/22 39/98/22 38/99/22
f 16/100/22 8/92/22 37/95/22 40/101/22
f 11/93/22 5/102/22 41/103/22 36/94/22
f 6/89/22 12/96/22 38/99/22 35/90/22
f 5/102/22 15/88/22 34/91/22 41/103/22
f 7/97/22 16/100/22 40/101/22 39/98/22
f 47/104/23 56/105/23 62/106/23 64/107/23
f 42/108/24 46/109/24 63/110/24 59/111/24
f 56/105/25 48/112/25 65/113/25 62/106/25
f 46/114/2 44/115/2 61/116/2 63/117/2
f 16/118/25 7/119/25 55/120/25 45/121/25
f 12/30/24 6/122/24 51/123/24 54/31/24
f 8/124/23 16/118/23 45/121/23 53/125/23
f 11/42/26 8/126/26 53/127/26 52/43/26
f 44/128/27 46/129/27 51/130/27 50/131/27
f 47/132/28 43/133/28 52/134/28 53/135/28
f 42/136/29 48/137/29 55/138/29 54/139/29
f 56/140/30 47/132/30 53/135/30 45/141/30
f 43/133/31 49/142/31 57/143/31 52/134/31
f 46/129/32 42/136/32 54/139/32 51/130/32
f 49/142/33 44/128/33 50/131/33 57/143/33
f 48/137/34 56/140/34 45/141/34 55/138/34
f 58/144/22 62/145/22 65/146/22 59/147/22
f 61/148/22 58/144/22 59/147/22 63/149/22
f 66/150/22 60/151/22 58/144/22 61/148/22
f 60/151/22 64/152/22 62/145/22 58/144/22
f 43/153/26 47/154/26 64/155/26 60/156/26
f 44/115/15 49/157/15 66/158/15 61/116/15
f 49/159/12 43/153/12 60/156/12 66/160/12
f 48/161/9 42/108/9 59/111/9 65/162/9
