# Blender v2.77 (sub 0) OBJ File: 'Kello.blend'
# www.blender.org
mtllib Kello.mtl
o Cube
v 1.000000 -0.430611 -0.643063
v 1.000000 -0.432810 0.630516
v 1.000000 0.451965 -0.582164
v 1.000000 0.454073 0.569696
v 1.000000 -0.707875 0.000459
v 1.000000 0.664173 -0.313139
v 1.000000 0.718951 0.000504
v 1.000000 -0.732395 -0.387863
v 1.000000 0.000259 -0.856490
v 1.000000 -0.005057 0.744349
v 1.000000 0.667528 0.315218
v 1.000000 -0.650105 0.353498
v 1.000000 0.233905 -0.712577
v 1.000000 0.235265 0.691809
v 1.000000 -0.230234 -0.742369
v 1.000000 -0.231817 0.721740
v 0.770606 -0.735841 0.391138
v 0.770606 -0.490481 0.703934
v 0.770606 0.267743 -0.798011
v 0.770606 0.512835 -0.651431
v 0.770606 0.267743 0.777540
v 0.770606 0.512835 0.640759
v 0.770606 0.753015 0.354420
v 0.770606 0.338151 -0.418900
v 0.770606 0.000002 -0.430642
v 0.770606 -0.337806 -0.435774
v 0.770606 -0.732395 -0.387864
v 0.770606 -0.799846 0.000000
v 0.770606 0.749568 -0.351314
v 0.770606 0.810926 0.000000
v 0.770606 0.000259 -0.856490
v 0.770606 -0.378753 0.000000
v 0.770606 -0.490481 -0.714607
v 0.770606 -0.255687 -0.830970
v 0.770606 -0.255687 0.810499
v 0.770606 0.000259 0.836018
v 0.770606 0.329042 0.422090
v 0.770606 0.000002 0.448394
v 0.770606 0.375920 0.000000
v 0.770606 -0.000000 0.000000
v 0.770606 -0.337806 0.438964
v 1.000000 -0.735841 0.391138
v 1.000000 -0.490481 0.703934
v 1.000000 0.267743 -0.798011
v 1.000000 0.512835 -0.651431
v 1.000000 0.267743 0.777540
v 1.000000 0.512835 0.640759
v 1.000000 0.753015 0.354420
v 1.000000 -0.646726 -0.351163
v 1.000000 -0.799846 0.000000
v 1.000000 0.749568 -0.351314
v 1.000000 0.810926 0.000001
v 1.000000 -0.490481 -0.714607
v 1.000000 -0.255687 -0.830970
v 1.000000 -0.005058 -0.764820
v 1.000000 -0.255687 0.810499
v 1.000000 0.000259 0.836018
v 0.940478 0.338151 -0.418900
v 0.940478 0.000002 -0.430642
v 0.940478 -0.337806 -0.435774
v 0.940478 -0.646726 -0.351163
v 0.940478 -0.005058 -0.764820
v 0.940478 -0.378753 0.000000
v 0.940478 -0.707875 0.000459
v 0.940478 0.329042 0.422090
v 0.940478 0.000002 0.448394
v 0.940478 0.375920 0.000000
v 0.940478 -0.000000 0.000000
v 0.940478 -0.337806 0.438964
v 0.940478 -0.650105 0.353498
v 0.940478 -0.005058 0.744349
v 0.940478 0.664173 -0.313139
v 0.940478 0.667528 0.315218
v 0.940478 0.718951 0.000504
v 0.940478 0.235265 0.691809
v 0.940478 0.233905 -0.712577
v 0.940478 -0.231817 0.721740
v 0.940478 -0.230234 -0.742369
v 0.940478 -0.432810 0.630516
v 0.940478 0.451965 -0.582164
v 0.940478 0.454073 0.569696
v 0.940478 -0.430611 -0.643063
vt 0.8224 0.5742
vt 0.8224 0.6360
vt 0.8037 0.6360
vt 0.8037 0.5742
vt 0.8411 0.5287
vt 0.8411 0.5896
vt 0.8224 0.5896
vt 0.8224 0.5287
vt 0.8411 0.6609
vt 0.8411 0.7317
vt 0.8224 0.7317
vt 0.8224 0.6609
vt 0.8224 0.5287
vt 0.8037 0.5287
vt 0.8411 0.6283
vt 0.8411 0.5287
vt 0.8598 0.5287
vt 0.8598 0.6283
vt 0.7315 0.7395
vt 0.7315 0.6427
vt 0.7502 0.6427
vt 0.7502 0.7395
vt 0.8411 0.7987
vt 0.8224 0.7987
vt 0.8411 0.8802
vt 0.8224 0.8802
vt 0.8224 0.7114
vt 0.8037 0.7114
vt 0.7315 0.8392
vt 0.7502 0.8392
vt 0.8411 0.8436
vt 0.8411 0.7403
vt 0.8598 0.7403
vt 0.8598 0.8436
vt 0.8224 0.7897
vt 0.8224 0.8836
vt 0.8037 0.8836
vt 0.8037 0.7897
vt 0.7690 0.6427
vt 0.7690 0.7354
vt 0.7502 0.7354
vt 0.7502 0.6427
vt 0.6281 0.4920
vt 0.5594 0.4342
vt 0.5012 0.3294
vt 0.6255 0.3711
vt 0.6710 0.1114
vt 0.5360 0.1109
vt 0.6251 0.0345
vt 0.7081 0.0046
vt 0.6350 0.2396
vt 0.5000 0.2176
vt 0.8693 0.2778
vt 0.7517 0.2586
vt 0.7745 0.1199
vt 0.8789 0.1399
vt 0.8344 0.4106
vt 0.7298 0.3919
vt 0.7889 0.5287
vt 0.7081 0.5236
vt 0.7941 0.0000
vt 0.8723 0.0209
vt 1.0000 0.1749
vt 0.9397 0.0657
vt 0.8677 0.5046
vt 0.9594 0.4157
vt 1.0000 0.2991
vt 0.5151 0.6174
vt 0.5151 0.7001
vt 0.4429 0.7001
vt 0.4429 0.6174
vt 0.5872 0.8673
vt 0.5872 0.7559
vt 0.6594 0.7559
vt 0.6594 0.8673
vt 0.5151 0.5287
vt 0.4429 0.5287
vt 0.5151 0.6331
vt 0.5872 0.5287
vt 0.5872 0.6331
vt 0.5872 0.6738
vt 0.6594 0.6738
vt 0.5151 0.8528
vt 0.5151 0.7448
vt 0.5872 0.7448
vt 0.5872 0.8528
vt 0.7315 0.6412
vt 0.7315 0.7652
vt 0.6594 0.7652
vt 0.6594 0.6412
vt 0.5151 0.8638
vt 0.5151 0.9310
vt 0.4429 0.9310
vt 0.4429 0.8638
vt 0.5872 0.5974
vt 0.6594 0.5974
vt 0.5151 0.7859
vt 0.4429 0.7859
vt 0.7315 0.6427
vt 0.7315 0.5287
vt 0.8037 0.5287
vt 0.8037 0.6427
vt 0.5872 0.5287
vt 0.6594 0.5287
vt 0.7315 0.5287
vt 0.6594 0.5287
vt 0.5151 0.9145
vt 0.5872 0.9145
vt 0.4181 0.4432
vt 0.4715 0.3465
vt 0.5000 0.3538
vt 0.4397 0.4630
vt 0.1429 0.0614
vt 0.0819 0.1128
vt 0.0594 0.0944
vt 0.1281 0.0367
vt 0.1397 0.4692
vt 0.2138 0.4959
vt 0.2081 0.5241
vt 0.1251 0.4942
vt 0.0605 0.4013
vt 0.0360 0.4178
vt 0.4715 0.2343
vt 0.4346 0.1286
vt 0.4594 0.1129
vt 0.5000 0.2295
vt 0.0296 0.2068
vt 0.0286 0.3066
vt 0.0000 0.3111
vt 0.0012 0.1993
vt 0.3527 0.0493
vt 0.3677 0.0241
vt 0.2855 0.0287
vt 0.2144 0.0332
vt 0.2081 0.0051
vt 0.2889 0.0000
vt 0.2911 0.5000
vt 0.3603 0.4816
vt 0.3723 0.5078
vt 0.2941 0.5287
vt 0.1143 0.5614
vt 0.0969 0.6575
vt 0.0011 0.7067
vt 0.0533 0.6128
vt 0.1424 0.9172
vt 0.1853 0.9959
vt 0.1111 0.9692
vt 0.0319 0.9013
vt 0.1065 0.7890
vt 0.0000 0.8065
vt 0.3407 0.7508
vt 0.3503 0.8887
vt 0.2459 0.9087
vt 0.2231 0.7700
vt 0.3059 0.6181
vt 0.2013 0.6368
vt 0.2569 0.5287
vt 0.1859 0.5331
vt 0.3318 0.9815
vt 0.2625 1.0000
vt 0.4429 0.8464
vt 0.3895 0.9431
vt 0.3241 0.5492
vt 0.4061 0.6286
vt 0.4429 0.7343
vn 0.0000 -0.0992 0.9951
vn 0.0000 0.5133 -0.8582
vn 0.0000 -0.0992 -0.9951
vn 0.0000 -0.4133 0.9106
vn 0.0000 -0.7868 0.6172
vn 0.0000 0.7851 -0.6193
vn 0.0000 -0.4441 -0.8960
vn 0.0000 -0.8037 -0.5950
vn 0.0000 0.2136 0.9769
vn 0.0000 0.9851 -0.1720
vn 0.0000 0.2136 -0.9769
vn 0.0000 -0.9852 -0.1713
vn -0.0000 -0.9869 0.1615
vn -0.0000 0.7662 0.6427
vn -0.0000 0.9869 0.1613
vn 0.0000 0.4873 0.8732
vn 1.0000 -0.0000 0.0000
vn 0.0000 -0.4873 -0.8732
vn 0.0000 0.8037 0.5950
vn 0.0000 -0.7662 -0.6427
vn 0.0000 -0.9869 -0.1613
vn -0.0000 0.4441 0.8960
vn -0.0000 -0.7851 0.6193
vn 0.0000 0.9869 -0.1615
vn 0.0000 0.4133 -0.9106
vn -0.0000 0.0992 0.9951
vn 0.0000 0.0992 -0.9951
vn -0.0000 0.9852 0.1713
vn -0.0000 -0.9851 0.1720
vn -0.0000 -0.2136 0.9769
vn 0.0000 0.7868 -0.6172
vn 0.0000 -0.2136 -0.9769
vn -0.0000 -0.5133 0.8582
vn -1.0000 0.0000 0.0000
usemtl Material
s off
f 16/1/1 10/2/1 71/3/1 77/4/1
f 3/5/2 13/6/2 76/7/2 80/8/2
f 55/9/3 15/10/3 78/11/3 62/12/3
f 2/13/4 16/1/4 77/4/4 79/14/4
f 12/15/5 2/16/5 79/17/5 70/18/5
f 6/19/6 3/20/6 80/21/6 72/22/6
f 15/10/7 1/23/7 82/24/7 78/11/7
f 1/23/8 49/25/8 61/26/8 82/24/8
f 10/2/9 14/27/9 75/28/9 71/3/9
f 7/29/10 6/19/10 72/22/10 74/30/10
f 13/6/11 55/9/11 62/12/11 76/7/11
f 49/31/12 5/32/12 64/33/12 61/34/12
f 5/32/13 12/15/13 70/18/13 64/33/13
f 4/35/14 11/36/14 73/37/14 81/38/14
f 11/39/15 7/40/15 74/41/15 73/42/15
f 14/27/16 4/35/16 81/38/16 75/28/16
f 19/43/17 20/44/17 29/45/17 24/46/17
f 37/47/17 23/48/17 22/49/17 21/50/17
f 39/51/17 30/52/17 23/48/17 37/47/17
f 24/46/17 29/45/17 30/52/17 39/51/17
f 32/53/17 40/54/17 38/55/17 41/56/17
f 26/57/17 25/58/17 40/54/17 32/53/17
f 34/59/17 31/60/17 25/58/17 26/57/17
f 41/56/17 38/55/17 36/61/17 35/62/17
f 25/58/17 24/46/17 39/51/17 40/54/17
f 40/54/17 39/51/17 37/47/17 38/55/17
f 38/55/17 37/47/17 21/50/17 36/61/17
f 31/60/17 19/43/17 24/46/17 25/58/17
f 17/63/17 41/56/17 35/62/17 18/64/17
f 33/65/17 34/59/17 26/57/17 27/66/17
f 27/66/17 26/57/17 32/53/17 28/67/17
f 28/67/17 32/53/17 41/56/17 17/63/17
f 47/68/18 46/69/18 21/70/18 22/71/18
f 8/72/19 53/73/19 33/74/19 27/75/19
f 48/76/20 47/68/20 22/71/20 23/77/20
f 52/78/21 48/76/21 23/79/21 30/80/21
f 53/73/22 54/81/22 34/82/22 33/74/22
f 45/83/23 51/84/23 29/85/23 20/86/23
f 42/87/24 50/88/24 28/89/24 17/90/24
f 56/91/25 43/92/25 18/93/25 35/94/25
f 54/81/26 9/95/26 31/96/26 34/82/26
f 57/97/27 56/91/27 35/94/27 36/98/27
f 50/99/28 8/100/28 27/101/28 28/102/28
f 51/84/29 52/78/29 30/80/29 29/85/29
f 9/95/30 44/103/30 19/104/30 31/96/30
f 43/105/31 42/87/31 17/90/31 18/106/31
f 46/69/32 57/97/32 36/98/32 21/70/32
f 44/107/33 45/83/33 20/86/33 19/108/33
f 2/109/34 12/110/34 42/111/34 43/112/34
f 13/113/34 3/114/34 45/115/34 44/116/34
f 4/117/34 14/118/34 46/119/34 47/120/34
f 11/121/34 4/117/34 47/120/34 48/122/34
f 5/123/34 49/124/34 8/125/34 50/126/34
f 6/127/34 7/128/34 52/129/34 51/130/34
f 49/124/34 1/131/34 53/132/34 8/125/34
f 3/114/34 6/127/34 51/130/34 45/115/34
f 15/133/34 55/134/34 9/135/34 54/136/34
f 10/137/34 16/138/34 56/139/34 57/140/34
f 7/128/34 11/121/34 48/122/34 52/129/34
f 12/110/34 5/123/34 50/126/34 42/111/34
f 55/134/34 13/113/34 44/116/34 9/135/34
f 14/118/34 10/137/34 57/140/34 46/119/34
f 1/131/34 15/133/34 54/136/34 53/132/34
f 16/138/34 2/109/34 43/112/34 56/139/34
f 76/141/34 58/142/34 72/143/34 80/144/34
f 65/145/34 75/146/34 81/147/34 73/148/34
f 67/149/34 65/145/34 73/148/34 74/150/34
f 58/142/34 67/149/34 74/150/34 72/143/34
f 63/151/34 69/152/34 66/153/34 68/154/34
f 60/155/34 63/151/34 68/154/34 59/156/34
f 78/157/34 60/155/34 59/156/34 62/158/34
f 69/152/34 77/159/34 71/160/34 66/153/34
f 59/156/34 68/154/34 67/149/34 58/142/34
f 68/154/34 66/153/34 65/145/34 67/149/34
f 66/153/34 71/160/34 75/146/34 65/145/34
f 62/158/34 59/156/34 58/142/34 76/141/34
f 70/161/34 79/162/34 77/159/34 69/152/34
f 82/163/34 61/164/34 60/155/34 78/157/34
f 61/164/34 64/165/34 63/151/34 60/155/34
f 64/165/34 70/161/34 69/152/34 63/151/34
